<?xml version="1.0" encoding="UTF-8"?>
<svg width="125px" height="45px" viewBox="0 0 125 45" version="1.1" xmlns="http://www.w3.org/2000/svg" xmlns:xlink="http://www.w3.org/1999/xlink">
    <!-- Generator: Sketch 63.1 (92452) - https://sketch.com -->
    <title>Group 22 Copy 3</title>
    <desc>Created with Sketch.</desc>
    <defs>
        <path d="M0.223079813,29.8839184 L4.71080883,29.8839184 C5.5979488,29.8839184 6.31308152,30.1383755 6.85622845,30.6472972 C7.39937537,31.156219 7.67094476,31.8712319 7.67094476,32.7923572 C7.67094476,33.5845251 7.42879539,34.2742073 6.94448938,34.8614248 C6.46018337,35.4486422 5.71563064,35.7422465 4.71080883,35.7422465 L1.57415103,35.7422465 L1.57415103,40.0323665 L0.223079813,40.0323665 L0.223079813,29.8839184 Z M6.42963393,33.0291398 C6.42963393,32.2216463 6.14468738,31.6733564 5.57478573,31.3842538 C5.26133983,31.2297334 4.83154545,31.1524744 4.2853897,31.1524744 L1.46439064,31.1524744 L1.46439064,34.9581424 L4.2853897,34.9581424 C4.92177987,34.9581424 5.4382455,34.8160855 5.83480206,34.5319674 C6.23135863,34.2478493 6.42963393,33.7469118 6.42963393,33.0291398 Z M10.2370885,32.4210304 L10.2370885,37.3407213 C10.2370885,37.7189835 10.2994894,38.0280468 10.4242931,38.2679204 C10.6547,38.710764 11.0843064,38.9321824 11.7131251,38.9321824 C12.6155521,38.9321824 13.2299612,38.5447001 13.5563709,37.7697238 C13.7339762,37.354558 13.8227775,36.7848667 13.8227775,36.0606329 L13.8227775,32.4210304 L15.1188097,32.4210304 L15.1188097,39.831704 L13.8947793,39.831704 L13.9091797,38.7384393 C13.7411747,39.0198295 13.5323716,39.2573931 13.2827641,39.4511372 C12.7883494,39.8386253 12.1883405,40.0323665 11.4827194,40.0323665 C10.3834866,40.0323665 9.63467551,39.6794808 9.23626363,38.9736988 C9.02025718,38.5954366 8.91225558,38.0903257 8.91225558,37.458351 L8.91225558,32.4210304 L10.2370885,32.4210304 Z M16.3601205,29.8839184 L17.5119201,29.8839184 L17.5119201,33.4708699 C17.770802,33.1254082 18.0801394,32.8618293 18.4399414,32.6801254 C18.7997435,32.4984215 19.1902544,32.4075709 19.6114861,32.4075709 C20.489052,32.4075709 21.2009667,32.7160143 21.7472515,33.3329102 C22.2935363,33.9498061 22.5666746,34.8594336 22.5666746,36.0618198 C22.5666746,37.2013948 22.2968272,38.1480355 21.7571241,38.9017701 C21.2174211,39.6555048 20.4693073,40.0323665 19.5127604,40.0323665 C18.9774452,40.0323665 18.5255055,39.9000162 18.1569278,39.6353118 C17.9375363,39.4782837 17.702791,39.2270426 17.4526847,38.8815809 L17.4526847,39.8035553 L16.3601205,39.8035553 L16.3601205,29.8839184 Z M19.5010131,38.7638105 C20.1112228,38.7638105 20.5678283,38.5224804 20.8708434,38.0398129 C21.1738585,37.5571455 21.3253638,36.9205334 21.3253638,36.1299574 C21.3253638,35.4267609 21.1738585,34.84424 20.8708434,34.3823772 C20.5678283,33.9205144 20.1216714,33.6895864 19.5323593,33.6895864 C19.0182785,33.6895864 18.5679421,33.8789057 18.1813367,34.25755 C17.7947312,34.6361943 17.6014314,35.2603238 17.6014314,36.1299574 C17.6014314,36.7582572 17.680841,37.267963 17.8396627,37.6590901 C18.1364071,38.395574 18.6901865,38.7638105 19.5010131,38.7638105 Z M23.8079855,29.8839184 L25.0492963,29.8839184 L25.0492963,40.0323665 L23.8079855,40.0323665 L23.8079855,29.8839184 Z M26.2906071,32.4210304 L27.5319179,32.4210304 L27.5319179,40.0323665 L26.2906071,40.0323665 L26.2906071,32.4210304 Z M26.2906071,29.8839184 L27.5319179,29.8839184 L27.5319179,31.1524744 L26.2906071,31.1524744 L26.2906071,29.8839184 Z M32.0626348,32.4210304 C32.8793501,32.4210304 33.5437674,32.6180857 34.0559065,33.0122022 C34.5680457,33.4063186 34.8760014,34.0848157 34.9797829,35.0477139 L33.795326,35.0477139 C33.7231302,34.6043329 33.5584359,34.2359739 33.3012383,33.9426258 C33.0440406,33.6492778 32.6311769,33.502606 32.0626348,33.502606 C31.2865296,33.502606 30.7315325,33.8788024 30.3976268,34.6312066 C30.1810393,35.1193735 30.0727472,35.7217357 30.0727472,36.438311 C30.0727472,37.159365 30.226161,37.7662057 30.5329933,38.2588513 C30.8398256,38.7514968 31.3226279,38.9978159 31.9814149,38.9978159 C32.4867857,38.9978159 32.8872409,38.8444263 33.1827926,38.5376425 C33.4783443,38.2308586 33.68252,37.8109966 33.795326,37.2780436 L34.9797829,37.2780436 C34.8444157,38.2319846 34.5060028,38.9295155 33.9645341,39.3706572 C33.4230654,39.8117989 32.7304471,40.0323665 31.8866583,40.0323665 C30.9390881,40.0323665 30.1832993,39.6886394 29.6192694,39.0011749 C29.0552395,38.3137104 28.7732288,37.4549524 28.7732288,36.4248753 C28.7732288,35.1619112 29.0823125,34.1788741 29.7004893,33.4757345 C30.3186661,32.7725949 31.10604,32.4210304 32.0626348,32.4210304 Z M37.4624045,37.7679347 C37.4624045,38.0761835 37.5969179,38.3192222 37.8659486,38.497058 C38.1349792,38.6748939 38.4535634,38.7638105 38.8217107,38.7638105 C39.2700952,38.7638105 39.7043136,38.6768698 40.1243791,38.5029859 C40.8323546,38.2144966 41.186337,37.7422507 41.186337,37.0862341 L41.186337,36.2266984 C41.0305824,36.3096885 40.8299924,36.3788458 40.5845609,36.4341726 C40.3391293,36.4894993 40.0984213,36.5290177 39.8624295,36.5527292 L39.09074,36.6357188 C38.628196,36.6870936 38.2812933,36.7681065 38.0500213,36.8787599 C37.6582748,37.0644996 37.4624045,37.3608882 37.4624045,37.7679347 Z M40.044282,35.430632 C40.2975287,35.3948032 40.467038,35.2783614 40.5528151,35.0813032 C40.6018306,34.9738169 40.626338,34.8193077 40.626338,34.6177708 C40.626338,34.20574 40.4925685,33.9067982 40.2250257,33.7209364 C39.9574829,33.5350747 39.5745552,33.4421452 39.0762311,33.4421452 C38.5002993,33.4421452 38.0918431,33.6123293 37.8508503,33.9527026 C37.7160577,34.1408027 37.6282396,34.4207117 37.5873934,34.7924352 L36.5580735,34.7924352 C36.5784966,33.9056732 36.8409297,33.2887558 37.3453807,32.9416646 C37.8498316,32.5945734 38.4349452,32.4210304 39.1007388,32.4210304 C39.8727326,32.4210304 40.4997129,32.5822575 40.9816984,32.9047164 C41.4595993,33.2271753 41.6985462,33.7287705 41.6985462,34.4095172 L41.6985462,38.5544371 C41.6985462,38.6798378 41.7220324,38.7806047 41.7690056,38.8567409 C41.8159788,38.932877 41.9150294,38.9709445 42.0661605,38.9709445 C42.115176,38.9709445 42.1703175,38.9675856 42.2315869,38.9608677 C42.2928562,38.9541498 42.3582092,38.9440731 42.4276478,38.9306373 L42.4276478,39.8241128 C42.2560937,39.8778559 42.1253877,39.9114449 42.035526,39.9248807 C41.9456642,39.9383165 41.8231274,39.9450343 41.6679117,39.9450343 C41.2880417,39.9450343 41.0123338,39.7972428 40.8407796,39.5016555 C40.7509179,39.3449046 40.6876072,39.1232174 40.6508456,38.8365873 C40.4261913,39.1590462 40.1035109,39.4389543 39.6827947,39.6763198 C39.2620785,39.9136854 38.7984807,40.0323665 38.2919874,40.0323665 C37.6833785,40.0323665 37.1860831,39.829713 36.8000862,39.4244001 C36.4140893,39.0190871 36.2210937,38.5118937 36.2210937,37.9028047 C36.2210937,37.2354938 36.4110259,36.7182237 36.7908958,36.3509789 C37.1707658,35.983734 37.6690824,35.7575683 38.2858605,35.6724749 L40.044282,35.430632 Z M43.5119254,31.1524744 L44.8728806,31.1524744 L44.8728806,33.066741 L46.1515803,33.066741 L46.1515803,34.0078687 L44.8728806,34.0078687 L44.8728806,38.483027 C44.8728806,38.7220447 44.9675982,38.8820989 45.1570361,38.9631942 C45.2617255,39.0101441 45.4362052,39.0336187 45.6804804,39.0336187 C45.7452881,39.0336187 45.81508,39.0325517 45.8898581,39.0304176 C45.9646363,39.0282835 46.0518761,39.0229483 46.1515803,39.014412 L46.1515803,39.9235286 C45.9970388,39.9619421 45.8362683,39.9896848 45.6692638,40.0067575 C45.5022593,40.0238302 45.3215481,40.0323665 45.127125,40.0323665 C44.4989887,40.0323665 44.0727597,39.8947199 43.8484253,39.6194227 C43.6240909,39.3441254 43.5119254,38.9866712 43.5119254,38.5470493 L43.5119254,34.0078687 L42.4276478,34.0078687 L42.4276478,33.066741 L43.5119254,33.066741 L43.5119254,31.1524744 Z M47.3928911,32.4210304 L48.634202,32.4210304 L48.634202,40.0323665 L47.3928911,40.0323665 L47.3928911,32.4210304 Z M47.3928911,29.8839184 L48.634202,29.8839184 L48.634202,31.1524744 L47.3928911,31.1524744 L47.3928911,29.8839184 Z M52.981769,38.7638105 C53.6927954,38.7638105 54.1803774,38.4873527 54.4445297,37.9344288 C54.7086819,37.381505 54.8407561,36.766361 54.8407561,36.0889782 C54.8407561,35.4768854 54.7454244,34.9790574 54.5547581,34.5954793 C54.2528698,33.9915477 53.7325175,33.6895864 52.9936856,33.6895864 C52.3382702,33.6895864 51.8616116,33.9466616 51.5636955,34.4608195 C51.2657794,34.9749775 51.1168236,35.5952222 51.1168236,36.3215724 C51.1168236,37.0193582 51.2657794,37.6008376 51.5636955,38.0660281 C51.8616116,38.5312187 52.334298,38.7638105 52.981769,38.7638105 Z M53.0161038,32.4210304 C53.874329,32.4210304 54.5998708,32.7278823 55.192751,33.3415952 C55.7856312,33.9553081 56.0820669,34.8580751 56.0820669,36.0499233 C56.0820669,37.2017468 55.8208718,38.1534322 55.2984739,38.9050082 C54.7760759,39.6565841 53.9655421,40.0323665 52.866848,40.0323665 C51.9505786,40.0323665 51.2229638,39.6999436 50.6839818,39.035088 C50.1449997,38.3702323 49.8755128,37.4774714 49.8755128,36.3567782 C49.8755128,35.1560356 50.1595106,34.1999031 50.7275147,33.4883519 C51.2955188,32.7768007 52.0583742,32.4210304 53.0161038,32.4210304 Z M57.3233777,32.5878542 L58.5390945,32.5878542 L58.5390945,33.644405 C58.8993087,33.2088073 59.2808456,32.8960158 59.6837168,32.7060211 C60.0865879,32.5160264 60.5344791,32.4210304 61.0274037,32.4210304 C62.1080463,32.4210304 62.837943,32.7894293 63.2171158,33.5262381 C63.4256609,33.9293977 63.5299318,34.5063242 63.5299318,35.2570351 L63.5299318,40.0323665 L62.2289016,40.0323665 L62.2289016,35.340447 C62.2289016,34.8863132 62.1601776,34.5202313 62.0227274,34.2421903 C61.7952237,33.7787885 61.3828795,33.5470911 60.7856823,33.5470911 C60.482344,33.5470911 60.2335156,33.5772118 60.0391895,33.637454 C59.6884546,33.7394024 59.3803813,33.9432961 59.1149604,34.2491413 C58.9016756,34.4947442 58.7630427,34.7484529 58.6990572,35.0102749 C58.6350718,35.2720969 58.6030796,35.6462882 58.6030796,36.1328601 L58.6030796,40.0323665 L57.3233777,40.0323665 L57.3233777,32.5878542 Z M65.9858737,37.5152843 C66.0233192,37.9158829 66.128633,38.2230039 66.3018182,38.4366565 C66.6201047,38.8239019 67.1724169,39.0175217 67.9587716,39.0175217 C68.4268399,39.0175217 68.8387338,38.9207118 69.1944656,38.7270891 C69.5501975,38.5334664 69.7280608,38.2341347 69.7280608,37.829085 C69.7280608,37.5219594 69.5853021,37.2882803 69.2997805,37.1280409 C69.1172338,37.0301168 68.7568267,36.9166155 68.2185482,36.7875337 L67.2145468,36.5471757 C66.5732933,36.3958385 66.1005514,36.2266994 65.796307,36.0397533 C65.2533479,35.7148233 64.9818723,35.2652694 64.9818723,34.691078 C64.9818723,34.0145114 65.2381359,33.4670348 65.7506706,33.0486318 C66.2632054,32.6302288 66.9524255,32.4210304 67.8183518,32.4210304 C68.951077,32.4210304 69.7678439,32.7370535 70.2686769,33.3691091 C70.5822827,33.7697078 70.7344026,34.2014576 70.7250412,34.6643716 L69.5314731,34.6643716 C69.5080697,34.3928547 69.4074365,34.1458226 69.2295706,33.9232678 C68.9393683,33.60724 68.4362024,33.4492284 67.720058,33.4492284 C67.2426284,33.4492284 66.881051,33.5360235 66.6353152,33.7096163 C66.3895794,33.883209 66.2667133,34.112437 66.2667133,34.3973071 C66.2667133,34.7088839 66.4281944,34.9581415 66.7511615,35.1450875 C66.9383888,35.2563649 67.214545,35.3542876 67.5796382,35.4388584 L68.4151359,35.6324801 C69.3231883,35.8416816 69.9316679,36.0442034 70.240593,36.2400517 C70.7320646,36.5471773 70.9777968,37.0301139 70.9777968,37.6888762 C70.9777968,38.3253829 70.7238736,38.875085 70.2160195,39.337999 C69.7081654,39.8009129 68.9346942,40.0323665 67.8955827,40.0323665 C66.7768996,40.0323665 65.9847059,39.7908981 65.518978,39.3079542 C65.0532501,38.8250103 64.8040075,38.2274596 64.7712427,37.5152843 L65.9858737,37.5152843 Z" id="path-1"></path>
    </defs>
    <g id="Landing-page" stroke="none" stroke-width="1" fill="none" fill-rule="evenodd" opacity="0.8">
        <g id="PV---Home-web" transform="translate(-857.000000, -5007.000000)">
            <g id="Group-22-Copy-3" transform="translate(857.000000, 5007.000000)">
                <g id="Group_44" transform="translate(0.000000, 0.035886)">
                    <path d="M21.79311,0.321515481 C21.7577356,0.350986299 16.4534083,4.77623552 17.5498831,7.55213675 C18.650025,10.3373219 24.4650609,11.7299145 26.08908,10.4444444 C26.08908,10.4444444 27.2416096,10.2301994 27.2416096,12.5868946 C27.2416096,12.5868946 27.1892219,15.6934473 29.9657706,17.0860399 C29.9657706,17.0860399 33.2661964,18.4786325 35.6236433,14.997151 C35.6760311,14.6757835 35.6236433,14.3008547 35.4140925,14.0330484 C35.4140925,14.0330484 33.4233595,12.2119658 33.7376858,11.0871795 C33.7376858,11.0871795 36.042745,9.85527066 35.6236433,5.1954416 L35.632346,5.29721539 C40.5780134,9.39480877 43.7437385,15.6534824 43.7437385,22.6564103 C43.7437385,34.9754986 33.9472366,44.9378917 21.8980631,44.9378917 C9.96938137,44.9378917 0.248543016,35.1737502 0.0553191175,22.9732979 L0.0523877108,22.602849 C0.0523877108,10.4069516 9.65393924,0.520851054 21.5372713,0.324348634 Z M43.5865754,19.9783476 C40.8100267,15.5327635 38.1382535,19.6569801 38.1382535,19.6569801 C39.1860077,21.0495726 38.6097429,23.6740741 38.6097429,23.6740741 C38.3478043,25.4415954 36.5142344,26.4592593 36.5142344,26.4592593 C33.5805226,27.6911681 33.2138086,28.6017094 33.2138086,28.6017094 C32.427993,30.2621083 32.7423193,32.1903134 33.9472366,33.5293447 C34.8378277,34.225641 34.8902154,37.2786325 34.8902154,37.2786325 C34.9426031,37.2786325 34.9426031,37.3321937 34.9426031,37.3321937 C36.5666221,39.0461538 38.4525797,37.1179487 38.4525797,37.1179487 C42.4340458,32.4045584 44.2676156,26.191453 43.5865754,19.9783476 Z" id="Combined-Shape" fill="#1D3860"></path>
                    <path d="M27.0320588,28.8695157 C26.5605694,28.8695157 26.08908,28.7088319 25.6699783,28.4410256 L21.374186,32.9401709 C22.3695525,34.3863248 22.0028385,36.3680912 20.6407581,37.385755 C19.2786776,38.4034188 17.2879446,38.02849 16.2925781,36.6358974 C15.4543747,35.4039886 15.5591501,33.797151 16.5545166,32.6723647 L11.3157455,25.977208 C9.16784939,27.1019943 6.54846385,26.191453 5.44832192,23.9954416 C4.34818,21.7994302 5.23877108,19.1213675 7.38666722,17.9965812 C9.53456337,16.8717949 12.1539489,17.7823362 13.2540908,19.9783476 C14.1446819,21.7458689 13.7255802,23.9418803 12.311112,25.2809117 L17.4451077,31.9225071 C18.4404742,31.3868946 19.5930038,31.4404558 20.5359826,32.0296296 L24.9889381,27.5304843 C24.4126732,26.3521368 24.8841626,24.9059829 26.0366923,24.3168091 C27.1892219,23.7276353 28.6036901,24.2096866 29.1799549,25.3880342 C29.7562197,26.5663818 29.2847303,28.0125356 28.1322007,28.6017094 C27.7654867,28.8159544 27.4511605,28.8695157 27.0320588,28.8695157 Z" id="Path_3" fill="#FFFFFF"></path>
                </g>
                <g id="Group_45" transform="translate(53.066038, 0.000000)" fill="#1D3860" fill-rule="nonzero">
                    <path d="M13.1947779,16.6155208 C13.1947779,18.4983433 12.9123408,19.9610517 12.347458,21.0036899 C11.2998572,22.9067577 9.3073914,23.8582774 6.37000089,23.8582774 C4.67535252,23.8582774 3.22722018,23.4052933 2.02556043,22.4993115 C0.823900677,21.5933298 0.223079813,19.9813138 0.223079813,17.6632152 L0.223079813,16.0688977 L3.10396764,16.0688977 L3.10396764,17.6632152 C3.10396764,18.8779393 3.37870196,19.7914994 3.92817886,20.4039228 C4.47765575,21.0163463 5.33267006,21.3225534 6.49324743,21.3225534 C8.12627222,21.3225534 9.1943982,20.7708744 9.69765741,19.6675 C10.0057753,18.989279 10.1598319,17.7087765 10.1598319,15.8259541 L10.1598319,0.96084149 L13.1947779,0.96084149 L13.1947779,16.6155208 Z M17.9117591,0.96084149 L22.208299,0.96084149 L28.5701933,20.3200079 L34.8868609,0.96084149 L39.1381742,0.96084149 L39.1381742,23.8582774 L36.2888897,23.8582774 L36.2888897,10.34427 C36.2888897,9.8766549 36.29894,9.10250381 36.3190409,8.02179347 C36.3391418,6.94108313 36.3491921,5.78245432 36.3491921,4.5458723 L30.0325245,23.8582774 L27.0626355,23.8582774 L20.7007412,4.5458723 L20.7007412,5.24729137 C20.7007412,5.80842943 20.713304,6.66311301 20.7384301,7.81136775 C20.7635562,8.95962249 20.776119,9.80391478 20.776119,10.34427 L20.776119,23.8582774 L17.9117591,23.8582774 L17.9117591,0.96084149 Z M43.8551553,0.96084149 L47.3928911,0.96084149 L47.3928911,23.8582774 L43.8551553,23.8582774 L43.8551553,0.96084149 Z M62.7570816,10.6018671 C64.1995907,10.6018671 65.3407013,10.3329966 66.1804477,9.79524746 C67.0201941,9.25749832 67.4400609,8.28764388 67.4400609,6.88565506 C67.4400609,5.37803693 66.8527625,4.35056738 65.6781479,3.80321558 C65.0496261,3.51513569 64.2098924,3.3710979 63.1589215,3.3710979 L55.6476081,3.3710979 L55.6476081,10.6018671 L62.7570816,10.6018671 Z M52.1098723,0.96084149 L62.6264204,0.96084149 C64.3585664,0.96084149 65.7865343,1.21542809 66.9103672,1.72460892 C69.0446185,2.70140481 70.1117281,4.50429358 70.1117281,7.13332931 C70.1117281,8.50500013 69.8307741,9.62725943 69.2688577,10.5001409 C68.7069413,11.3730223 67.9207857,12.0744343 66.9103672,12.6043981 C67.7970609,12.9680987 68.4646489,13.446098 68.913151,14.0384104 C69.361653,14.6307228 69.6116763,15.5919171 69.6632283,16.9220221 L69.7714869,19.992679 C69.802418,20.8655604 69.8745897,21.515016 69.988004,21.9410653 C70.1735911,22.6684665 70.5035187,23.1360745 70.9777968,23.3439034 L70.9777968,23.8582774 L67.2042119,23.8582774 C67.101108,23.6608399 67.0186261,23.4062533 66.9567637,23.09451 C66.8949013,22.7827666 66.8433502,22.1800718 66.8021086,21.2864075 L66.6165224,17.4675703 C66.5443497,15.9712021 65.9927519,14.9684427 64.9617127,14.4592618 C64.3740203,14.1786928 63.451254,14.0384104 62.193386,14.0384104 L55.1875091,14.0384104 L55.1875091,23.8582774 L52.1098723,23.8582774 L52.1098723,0.96084149 Z" id="JMIR"></path>
                    <g id="Publications">
                        <use xlink:href="#path-1"></use>
                        <use xlink:href="#path-1"></use>
                    </g>
                </g>
            </g>
        </g>
    </g>
</svg>