<?xml version="1.0" encoding="utf-8"?>
<!-- Generator: Adobe Illustrator 25.0.0, SVG Export Plug-In . SVG Version: 6.00 Build 0)  -->
<svg version="1.1" id="Layer_1" xmlns="http://www.w3.org/2000/svg" xmlns:xlink="http://www.w3.org/1999/xlink" x="0px" y="0px"
	 viewBox="0 0 62.36 62.36" style="enable-background:new 0 0 62.36 62.36;" xml:space="preserve">
<style type="text/css">
	.st0{fill:#F7F9FB;}
	.st1{opacity:0.3;fill:#E94955;}
	.st2{fill:#1E3961;}
	.st3{fill:#E94955;}
</style>
<g>
	<path class="st0" d="M10.48,25.96L26.71,9.73c7.37-7.37,19.31-7.37,26.67,0l0,0c7.37,7.37,7.37,19.31,0,26.67L37.16,52.63
		c-7.37,7.37-19.31,7.37-26.67,0l0,0C3.11,45.27,3.11,33.32,10.48,25.96z"/>
	<circle class="st1" cx="13.32" cy="25.87" r="9.86"/>
	<path class="st2" d="M54.51,46.81c-0.05,0.47-0.44,0.82-0.93,0.82c-0.26,0-0.51-0.11-0.68-0.3c-0.18-0.19-0.26-0.44-0.23-0.7
		c1.33-12.98,0.86-20.7-1.38-22.94c-2.58-2.58-6.14-4.45-10.59-5.57v0c-1.87-0.47-3.17-2.11-3.17-3.99V8.75
		c0-0.27,0.12-0.53,0.32-0.7c0.17-0.14,0.38-0.22,0.6-0.22c0.05,0,0.11,0,0.16,0.01c0.43,0.07,0.76,0.5,0.76,0.99v5.29
		c0,1.04,0.69,1.93,1.68,2.18c4.82,1.2,8.7,3.25,11.53,6.08C55.3,25.09,55.92,33.08,54.51,46.81z M46.08,32.82
		c0.1-0.49-0.14-0.97-0.55-1.12c-0.11-0.04-0.23-0.06-0.34-0.06c-0.15,0-0.3,0.04-0.44,0.12c-0.24,0.13-0.4,0.36-0.46,0.62
		l-2.26,11.31c-0.09,0.46-0.13,0.94-0.1,1.41l0.09,1.67c0.03,0.49,0.43,0.87,0.92,0.87c0.25,0,0.49-0.1,0.67-0.29
		c0.18-0.19,0.26-0.43,0.25-0.68L43.76,45c-0.02-0.32,0.01-0.64,0.07-0.95L46.08,32.82z M19.72,38.6c-0.1-0.48-0.5-0.83-0.93-0.83
		c-0.03,0-0.05,0-0.08,0c-0.27,0.03-0.5,0.16-0.65,0.37c-0.16,0.21-0.21,0.47-0.16,0.73l1.08,5.18c0.06,0.32,0.09,0.64,0.07,0.96
		l-0.09,1.66c-0.01,0.25,0.08,0.5,0.25,0.68c0.18,0.19,0.41,0.29,0.67,0.29c0.49,0,0.89-0.38,0.92-0.87v0l0.09-1.66
		c0.02-0.47-0.01-0.95-0.1-1.41L19.72,38.6z M32.24,46.71V29.46c0-0.5-0.33-0.92-0.76-0.99c-0.05-0.01-0.11-0.01-0.16-0.01
		c-0.22,0-0.43,0.08-0.6,0.22c-0.21,0.18-0.32,0.43-0.32,0.7v17.33c0,0.51,0.41,0.92,0.92,0.92C31.82,47.63,32.24,47.22,32.24,46.71
		z M25.1,14.12V8.84c0-0.5-0.33-0.92-0.76-0.99c-0.05-0.01-0.11-0.01-0.16-0.01c-0.22,0-0.43,0.08-0.6,0.22
		c-0.21,0.18-0.32,0.43-0.32,0.7v5.37c0,1.04-0.69,1.93-1.68,2.18c-4.82,1.2-8.7,3.25-11.53,6.08c-2.71,2.71-3.34,10.7-1.92,24.43
		c0.05,0.47,0.44,0.82,0.92,0.82h0.01c0.26,0,0.51-0.11,0.68-0.3c0.18-0.19,0.26-0.44,0.23-0.7c-1.33-12.98-0.86-20.7,1.38-22.94
		c2.58-2.58,6.14-4.45,10.59-5.57C23.79,17.64,25.1,16,25.1,14.12z"/>
	<path class="st3" d="M13.38,26.88l-0.04,0c-0.54,0.02-0.99-0.4-1.03-0.94c0-0.01,0-0.01,0-0.02c-0.03-0.54,0.36-1.01,0.9-1.06
		l0.04,0c0.55-0.05,1.04,0.36,1.07,0.91c0,0.02,0,0.04,0,0.07C14.36,26.39,13.93,26.86,13.38,26.88z M12.97,47.08
		c0.4-0.02,0.72-0.36,0.7-0.77c-0.01-0.13-0.58-12.96-0.01-17.12c0.06-0.4-0.23-0.77-0.63-0.83c-0.4-0.05-0.77,0.23-0.83,0.63
		c-0.59,4.29-0.03,16.86-0.01,17.39c0.02,0.39,0.34,0.7,0.73,0.7C12.94,47.09,12.96,47.09,12.97,47.08z M16,24.21
		c0.03-0.02,2.79-1.82,4.67-2.34c0.85-0.24,1.63-0.4,2.31-0.54c0.96-0.2,1.71-0.35,2.27-0.64c0.36-0.18,0.51-0.62,0.33-0.98
		c-0.18-0.36-0.62-0.51-0.98-0.33c-0.39,0.2-1.1,0.34-1.92,0.51c-0.71,0.15-1.51,0.31-2.41,0.56c-2.1,0.59-4.96,2.45-5.08,2.53
		c-0.34,0.22-0.43,0.68-0.21,1.01c0.14,0.21,0.37,0.33,0.61,0.33C15.74,24.33,15.88,24.29,16,24.21z"/>
</g>
</svg>
