<?xml version="1.0" encoding="utf-8"?>
<!-- Generator: Adobe Illustrator 25.0.0, SVG Export Plug-In . SVG Version: 6.00 Build 0)  -->
<svg version="1.1" id="Layer_1" xmlns="http://www.w3.org/2000/svg" xmlns:xlink="http://www.w3.org/1999/xlink" x="0px" y="0px"
	 viewBox="0 0 62.36 62.36" style="enable-background:new 0 0 62.36 62.36;" xml:space="preserve">
<style type="text/css">
	.st0{fill:#F7F9FB;}
	.st1{opacity:0.3;fill:#E94955;}
	.st2{fill:#1E3961;}
	.st3{fill:#E94955;}
</style>
<g>
	<path class="st0" d="M9.73,25.96L25.96,9.73c7.37-7.37,19.31-7.37,26.67,0l0,0C60,17.1,60,29.04,52.63,36.4L36.4,52.63
		C29.04,60,17.1,60,9.73,52.63l0,0C2.36,45.27,2.36,33.32,9.73,25.96z"/>
	<circle class="st1" cx="39.14" cy="43.68" r="9.86"/>
	<path class="st2" d="M46.75,40.62c0.12,1.72,0.12,3.46,0,5.17c-0.01,2.19-1.68,4-3.89,4.18c-1.82,0.15-3.64,0.22-5.46,0.22
		c-9.32,0-18.6-1.94-27.14-5.72c-0.38-0.18-0.55-0.62-0.4-1c0.08-0.2,0.23-0.35,0.42-0.43c0.19-0.08,0.41-0.09,0.6-0.01
		c9.98,4.41,20.99,6.26,31.85,5.37c1.38-0.11,2.45-1.29,2.45-2.67c0.13-1.73,0.13-3.46,0-5.17l0-0.05l0.01-0.04
		c1.88-9.66,2.38-19.53,1.49-29.33h-0.02l-0.02-0.33c-0.02-0.41,0.27-0.76,0.68-0.82c0.21-0.03,0.42,0.03,0.58,0.15
		s0.28,0.31,0.3,0.52C49.13,20.69,48.65,30.76,46.75,40.62z M31.31,32.23c-6.61-3.38-13.46-6.47-20.38-9.2
		c-0.39-0.14-0.82,0.05-0.99,0.43c-0.17,0.4,0.01,0.86,0.42,1.04c6.86,2.71,13.66,5.78,20.23,9.13c0.17,0.09,0.35,0.14,0.53,0.17
		c0.08,0.01,0.16,0.02,0.24,0.02c0.36,0,0.71-0.12,1-0.34c0.36-0.27,0.59-0.66,0.65-1.11c0.47-3.3,1.15-6.6,2.03-9.81
		c0.09-0.32,0.21-0.64,0.35-0.95c1.54-3.32,2.6-6.84,3.18-10.47c0.05-0.4-0.23-0.78-0.63-0.86c-0.21-0.04-0.42,0-0.59,0.12
		c-0.18,0.12-0.29,0.29-0.34,0.51c-0.55,3.47-1.58,6.85-3.05,10.05c-0.18,0.38-0.32,0.78-0.44,1.19c-0.9,3.28-1.6,6.64-2.09,10.04
		C31.42,32.23,31.35,32.25,31.31,32.23"/>
	<path class="st3" d="M35.16,43.84c-0.04,0-0.07,0-0.11-0.01c-10.37-1.51-15.7-4.19-15.97-4.31c-0.37-0.17-0.53-0.6-0.36-0.97
		c0.17-0.37,0.6-0.53,0.97-0.36c0.06,0.03,5.43,2.72,15.57,4.19c0.4,0.06,0.68,0.43,0.62,0.83C35.83,43.58,35.51,43.84,35.16,43.84z
		 M40.91,39.91c0.07-0.11,1.36-2.17,2.54-10.74c0.61-4.47,0.64-6.36,0.66-8.19c0.02-1.66,0.04-3.22,0.51-6.68
		c0.06-0.4-0.23-0.77-0.63-0.83c-0.4-0.05-0.77,0.23-0.83,0.63c-0.49,3.55-0.51,5.16-0.53,6.87c-0.02,1.78-0.04,3.62-0.64,8
		c-1.12,8.13-2.31,10.13-2.34,10.18c-0.21,0.34-0.1,0.79,0.24,1c0.12,0.07,0.25,0.11,0.38,0.11C40.53,40.26,40.77,40.14,40.91,39.91
		z M40.23,42.86c0-0.02,0-0.05,0-0.07c-0.04-0.59-0.56-1.04-1.15-0.99l-0.05,0c-0.58,0.05-1.01,0.56-0.97,1.14c0,0.01,0,0.02,0,0.02
		c0.04,0.58,0.52,1.03,1.11,1.01l0.05,0C39.8,43.96,40.26,43.45,40.23,42.86z"/>
</g>
</svg>
