<?xml version="1.0" encoding="utf-8"?>
<!-- Generator: Adobe Illustrator 25.0.0, SVG Export Plug-In . SVG Version: 6.00 Build 0)  -->
<svg version="1.1" id="Layer_1" xmlns="http://www.w3.org/2000/svg" xmlns:xlink="http://www.w3.org/1999/xlink" x="0px" y="0px"
	 viewBox="0 0 150 150" style="enable-background:new 0 0 150 150;" xml:space="preserve">
<style type="text/css">
	.st0{fill:#F2B8AD;}
	.st1{fill:#E84954;}
	.st2{opacity:0.5;fill:#F2B8AD;}
	.st3{fill:#EDD9D6;}
	.st4{fill:#1D3861;}
	.st5{clip-path:url(#SVGID_2_);fill:#FFFFFF;}
	.st6{fill:#E5092B;}
	.st7{fill:#FF585A;}
	.st8{fill:#01B9CA;}
	.st9{fill:#0D92A6;}
	.st10{fill:#2AD8E5;}
	.st11{fill:#0F264B;}
	.st12{fill:#4B5F80;}
	.st13{fill:#617492;}
	.st14{fill:#7888A1;}
	.st15{fill:#A5B1C1;}
	.st16{fill:#D1D8E0;}
	.st17{fill:#E9ECF1;}
	.st18{fill:#F8F9FA;}
	.st19{clip-path:url(#SVGID_6_);fill:#FFFFFF;}
	
		.st20{clip-path:url(#SVGID_6_);fill:none;stroke:#E9ECF1;stroke-width:5;stroke-linecap:round;stroke-linejoin:round;stroke-miterlimit:10;}
	
		.st21{clip-path:url(#SVGID_6_);fill:none;stroke:#E84954;stroke-width:8;stroke-linecap:round;stroke-linejoin:round;stroke-miterlimit:10;}
	.st22{clip-path:url(#SVGID_6_);}
	.st23{fill:none;stroke:#1D3861;stroke-width:5;stroke-linecap:round;stroke-linejoin:round;stroke-miterlimit:10;}
	.st24{fill:none;stroke:#E9ECF1;stroke-width:5;stroke-linecap:round;stroke-linejoin:round;stroke-miterlimit:10;}
	.st25{fill:none;stroke:#D1D8E0;stroke-width:4;stroke-miterlimit:10;}
	.st26{fill:none;stroke:#01B9CA;stroke-width:8;stroke-linecap:round;stroke-linejoin:round;stroke-miterlimit:10;}
</style>
<path class="st25" d="M75,124.99c-27.61,0-49.99-22.38-49.99-49.99S47.39,25.01,75,25.01l0,0"/>
<path class="st26" d="M75,25.01c27.61,0,49.99,22.38,49.99,49.99S102.61,124.99,75,124.99l0,0"/>
<g>
	<path class="st4" d="M68.18,83.88c2.56-2.21,4.58-4.03,6.06-5.46c1.48-1.43,2.71-2.91,3.7-4.46c0.99-1.55,1.48-3.09,1.48-4.64
		c0-1.6-0.38-2.85-1.14-3.76c-0.76-0.91-1.95-1.36-3.58-1.36c-1.57,0-2.79,0.5-3.66,1.5c-0.87,1-1.33,2.34-1.38,4.02h-4.4
		c0.08-3.04,0.99-5.37,2.74-6.98c1.75-1.61,3.97-2.42,6.66-2.42c2.91,0,5.18,0.8,6.82,2.4c1.64,1.6,2.46,3.73,2.46,6.4
		c0,1.92-0.49,3.77-1.46,5.54s-2.13,3.36-3.48,4.76c-1.35,1.4-3.06,3.02-5.14,4.86l-1.8,1.6h12.68v3.8H65.3v-3.32L68.18,83.88z"/>
</g>
</svg>
