<?xml version="1.0" encoding="utf-8"?>
<!-- Generator: Adobe Illustrator 25.0.0, SVG Export Plug-In . SVG Version: 6.00 Build 0)  -->
<svg version="1.1" id="Layer_1" xmlns="http://www.w3.org/2000/svg" xmlns:xlink="http://www.w3.org/1999/xlink" x="0px" y="0px"
	 viewBox="0 0 62.36 62.36" style="enable-background:new 0 0 62.36 62.36;" xml:space="preserve">
<style type="text/css">
	.st0{fill:#F7F9FB;}
	.st1{opacity:0.3;fill:#E94955;}
	.st2{fill:#1E3961;}
	.st3{fill:#E94955;}
</style>
<g>
	<path class="st0" d="M9.73,25.96L25.96,9.73c7.37-7.37,19.31-7.37,26.67,0l0,0C60,17.1,60,29.04,52.63,36.4L36.4,52.63
		C29.04,60,17.1,60,9.73,52.63l0,0C2.36,45.27,2.36,33.32,9.73,25.96z"/>
	<circle class="st1" cx="30.62" cy="32.86" r="9.86"/>
	<path class="st2" d="M7.36,45.27c-0.49-0.13-0.78-0.63-0.65-1.12l1.23-4.64c0.66-1.59,2.06-2.72,3.76-3.02l8.63-1.29
		c1.21-0.27,2.19-1.17,2.57-2.37l1.09-6.91l-0.08-0.07c-4-3.38-6.29-8.32-6.27-13.55c0-0.51,0.41-0.92,0.92-0.92
		c0.51,0,0.92,0.41,0.92,0.92c0,8.12,5.99,14.43,11.14,14.43c5.15,0,11.14-6.3,11.14-14.43c0-0.51,0.41-0.92,0.92-0.92
		c0.51,0,0.92,0.41,0.92,0.92c0.01,5.24-2.27,10.18-6.27,13.55l-0.08,0.07l1.12,7c0.4,1.17,1.39,2.05,2.61,2.3l8.51,1.26
		c1.67,0.27,3.08,1.35,3.76,2.87l1.28,4.79c0.13,0.49-0.16,0.99-0.65,1.12c-0.48,0.13-0.99-0.17-1.12-0.65l-1.25-4.7
		c-0.48-0.88-1.35-1.49-2.34-1.63l-8.5-1.26c-1.84-0.37-3.38-1.7-4.01-3.43l-0.95-6.61l-0.23,0.14c-1.46,0.89-3.14,1.38-4.84,1.43
		c-1.71-0.05-3.38-0.54-4.85-1.43l-0.23-0.14l-0.93,6.51c-0.61,1.78-2.14,3.13-3.97,3.51l-8.62,1.28c-1.02,0.17-1.9,0.83-2.35,1.79
		l-1.19,4.53C8.36,45.1,7.84,45.4,7.36,45.27z"/>
	<path class="st3" d="M26.83,35.23l-0.04,0c-0.47-0.02-0.82-0.42-0.81-0.89c0-0.01,0-0.01,0-0.02c0.01-0.47,0.39-0.84,0.86-0.84
		l0.04,0c0.47,0,0.86,0.39,0.85,0.87c0,0.02,0,0.04,0,0.06C27.71,34.89,27.3,35.26,26.83,35.23z M25.93,30.92c0,0.01,0,0.01,0,0.02
		c0.03,0.47,0.42,0.83,0.88,0.81l0.04,0c0.47-0.02,0.85-0.42,0.82-0.89c0-0.02,0-0.04,0-0.06c-0.03-0.47-0.45-0.83-0.92-0.79
		l-0.04,0C26.24,30.05,25.9,30.46,25.93,30.92z M34.46,33.49l-0.04,0c-0.47,0-0.84,0.37-0.86,0.84c0,0.01,0,0.01,0,0.02
		c-0.01,0.47,0.34,0.86,0.81,0.89l0.04,0c0.47,0.02,0.88-0.34,0.89-0.82c0-0.02,0-0.04,0-0.06C35.31,33.88,34.93,33.49,34.46,33.49z
		 M35.24,30.85c0-0.02,0-0.04,0-0.06c-0.03-0.47-0.45-0.83-0.92-0.79l-0.04,0c-0.47,0.04-0.81,0.45-0.78,0.91c0,0.01,0,0.01,0,0.02
		c0.03,0.47,0.42,0.83,0.88,0.81l0.04,0C34.9,31.73,35.27,31.33,35.24,30.85z M31.35,39.39v-8.74c0-0.4-0.33-0.73-0.73-0.73
		s-0.73,0.33-0.73,0.73v8.74c0,0.4,0.33,0.73,0.73,0.73S31.35,39.79,31.35,39.39z"/>
</g>
</svg>
