<?xml version="1.0" encoding="UTF-8"?>
<svg width="130px" height="61px" viewBox="0 0 130 61" version="1.1" xmlns="http://www.w3.org/2000/svg" xmlns:xlink="http://www.w3.org/1999/xlink">
    <!-- Generator: Sketch 63.1 (92452) - https://sketch.com -->
    <title>Group Copy 2</title>
    <desc>Created with Sketch.</desc>
    <g id="Landing-page" stroke="none" stroke-width="1" fill="none" fill-rule="evenodd" opacity="0.8">
        <g id="PV---Home-web" transform="translate(-575.000000, -5007.000000)" fill="#1D3860" fill-rule="nonzero">
            <g id="Group-Copy-2" transform="translate(575.000000, 5007.000000)">
                <g id="Group-10" transform="translate(1.460674, 20.666667)">
                    <path d="M13.3680899,25.1729323 L10.1113168,25.1729323 L3.78062431,15.9127863 L2.63902403,15.9127863 L2.63902403,25.1729323 L-2.27373675e-13,25.1729323 L-2.27373675e-13,3.14661654 L3.2567731,3.14661654 C5.19403419,3.14661654 7.21530914,3.14661654 8.9746585,4.13679037 C10.7340079,5.21789853 11.7915943,7.28412861 11.7915943,9.35035869 C11.7915943,12.4976969 9.7703193,15.1044811 6.60250207,15.4631665 L13.3680899,25.1729323 Z M2.63902403,13.5788051 L3.51869871,13.5788051 C6.2466786,13.5788051 9.2365841,13.038251 9.2365841,9.53222736 C9.2365841,6.11713803 6.06876687,5.57658395 3.42974284,5.57658395 L2.7279799,5.57658395 L2.7279799,13.5788051 L2.63902403,13.5788051 Z" id="Shape"></path>
                    <polygon id="Path" points="19.5379775 3.14661654 30.8494382 3.14661654 30.8494382 5.66246637 22.1960986 5.66246637 22.1960986 11.8662085 30.5942201 11.8662085 30.5942201 14.2961759 22.1960986 14.2961759 22.1960986 22.6570825 30.8494382 22.6570825 30.8494382 25.1729323 19.5379775 25.1729323"></polygon>
                    <path d="M39.6373243,25.1678816 L37.0193258,25.1678816 L37.0193258,3.14661654 L39.9740596,3.14661654 C46.3056319,3.14661654 48.3307865,5.48511326 48.3307865,9.5307631 C48.3307865,14.2027058 45.0393175,15.9149097 41.069635,15.9149097 L39.5519548,15.9149097 L39.5519548,25.1729323 L39.6373243,25.1729323 L39.6373243,25.1678816 Z M39.6373243,13.4854995 L40.4815339,13.4854995 C43.0995324,13.4854995 45.9688966,12.9450693 45.9688966,9.43984962 C45.9688966,6.02554339 42.9287933,5.57602674 40.3961644,5.57602674 L39.7226938,5.57602674 L39.7226938,13.4854995 L39.6373243,13.4854995 Z" id="Shape"></path>
                    <path d="M94.6049438,25.1729323 L91.3481707,25.1729323 L85.0174782,15.9127863 L83.875878,15.9127863 L83.875878,25.1729323 L81.2368539,25.1729323 L81.2368539,3.14661654 L84.493627,3.14661654 C86.4308881,3.14661654 88.4521631,3.14661654 90.2115124,4.13679037 C91.9708618,5.21789853 93.0284482,7.28412861 93.0284482,9.35035869 C93.0284482,12.4976969 91.0071732,15.1044811 87.839356,15.4631665 L94.6049438,25.1729323 Z M83.9648338,13.5788051 L84.8445085,13.5788051 C87.5724884,13.5788051 90.5623939,13.038251 90.5623939,9.53222736 C90.5623939,6.11713803 87.3945767,5.57658395 84.7555526,5.57658395 L84.0537897,5.57658395 L84.0537897,13.5788051 L83.9648338,13.5788051 Z" id="Shape"></path>
                    <polygon id="Path" points="105.161678 25.1729323 102.557872 25.1729323 102.557872 5.66246637 97.6898876 5.66246637 97.6898876 3.14661654 110.029663 3.14661654 110.029663 5.66246637 105.161678 5.66246637"></polygon>
                    <path d="M125.676477,6.63109987 C124.896143,5.26803014 123.852447,4.54310167 122.29178,4.54310167 C120.643325,4.54310167 118.731508,5.72238672 118.731508,7.72359771 C118.731508,9.44913168 120.379963,10.3578448 121.682144,10.9040938 L123.242812,11.542235 C126.281236,12.8134124 128.539326,14.5389464 128.539326,18.2656913 C128.539326,22.2630082 125.588689,25.1729323 121.769932,25.1729323 C118.297447,25.1729323 115.693084,22.5386852 115.171236,18.9957249 L117.863387,18.449476 C117.863387,20.9050436 119.687417,22.6305776 121.94063,22.6305776 C124.193843,22.6305776 125.847175,20.6293666 125.847175,18.2707965 C125.847175,15.9122264 124.023145,14.8197285 122.203992,14.0896949 L120.726236,13.4515537 C118.297447,12.3590558 116.127145,10.9091989 116.127145,7.82059518 C116.127145,4.18574256 119.165569,2.09774436 122.37469,2.09774436 C124.720568,2.09774436 126.715296,3.27702941 127.841903,5.46202508 L125.676477,6.63109987 Z" id="Path"></path>
                    <path d="M58.0980557,27.075183 L58.3532428,25.3476288 C58.1799082,25.2602806 57.9247211,25.2602806 57.7513864,25.2602806 C57.5780518,25.2602806 57.3228647,25.1729323 57.14953,25.1729323 L56.8943429,26.9004865 C56.2924866,26.9004865 55.7821124,26.9878348 55.2669233,27.075183 L54.5832145,25.4349771 C54.1546927,25.5223253 53.8128383,25.6921691 53.4709839,25.8668656 L54.0728403,27.5070715 C53.5576512,27.7642636 53.1291295,28.1136566 52.7006077,28.5455451 L51.3283752,27.424576 C51.0731881,27.7691163 50.8131861,28.031161 50.557999,28.3757013 L51.9302316,29.4141749 C51.6750445,29.8460634 51.4150425,30.3653002 51.2465227,30.9670326 L49.5324358,30.7098405 C49.4457684,30.884537 49.4457684,31.1417291 49.4457684,31.3164256 C49.4457684,31.4911221 49.3591011,31.7483141 49.3591011,31.9230106 L51.0731881,32.1802027 C51.0731881,32.7867877 51.1598554,33.3011718 51.2465227,33.8204086 L49.7057704,34.6841857 C49.7924377,35.1160742 49.9609575,35.4606145 50.1342921,35.8051548 L51.7617118,35.1160742 C52.0168989,35.635311 52.3635681,36.0671996 52.7920899,36.4990881 L51.6798593,37.882102 C52.0217137,38.139294 52.2817157,38.4013388 52.6235701,38.6585308 L53.6539482,37.2755169 C54.08247,37.532709 54.597659,37.7947537 55.1947005,37.9645975 L54.9250689,39.6824464 C55.0984035,39.7697946 55.3535906,39.7697946 55.5269253,39.7697946 C55.7002599,39.7697946 55.955447,39.8571429 56.1287816,39.8571429 L56.3839687,38.1295887 C56.9858251,38.1295887 57.4961993,38.0422404 58.0113884,37.9548922 L58.6132447,39.5950981 C59.0417665,39.5077499 59.3836209,39.3379061 59.7254753,39.1632096 L59.0417665,37.5230036 C59.5569555,37.2658116 59.9854773,36.9164186 60.413999,36.4845301 L61.7862316,37.5230036 C62.0414187,37.2658116 62.3014206,36.9164186 62.5566077,36.5718783 L61.1843752,35.5334047 C61.4395623,35.1015162 61.6995642,34.5822794 61.868084,33.980547 L63.582171,34.2377391 C63.6688383,34.0630426 63.6688383,33.8058505 63.6688383,33.6311541 C63.6688383,33.4564576 63.7555056,33.1992655 63.7555056,33.024569 L62.0414187,32.767377 C62.0414187,32.1607919 61.9547513,31.6464078 61.868084,31.127171 L63.4955037,30.520586 C63.4088363,30.0886975 63.2403166,29.7441572 63.0669819,29.3996169 L61.4395623,30.0886975 C61.1843752,29.5694607 60.8377059,29.1375721 60.4091842,28.7056836 L61.5214148,27.3226697 C61.1795603,27.0654776 60.9195584,26.8034329 60.577704,26.5462408 L59.5473258,27.9292547 C59.123619,27.5022189 58.6084299,27.2450268 58.0980557,27.075183 Z M58.3532428,28.365996 L58.4399101,28.365996 C59.123619,28.7105363 59.7254753,29.1424248 60.1539971,29.7490098 L60.2406644,29.8363581 C60.6691861,30.4429431 60.9243732,31.1320237 61.0977079,31.9084526 L61.0977079,31.9958008 C61.0977079,32.3403411 61.0977079,32.7722296 61.0977079,33.1167699 C61.0110405,33.4613102 60.9243732,33.8931988 60.7558534,34.2377391 L60.7558534,34.3250873 C60.413999,35.0141679 59.9854773,35.620753 59.3836209,36.0526415 L59.2969536,36.1399898 C58.6950972,36.5718783 58.0113884,36.9164186 57.2410122,37.0037669 L57.1543449,37.0037669 C56.8124905,37.0037669 56.3839687,37.0037669 56.0421143,37.0037669 C55.7002599,36.9164186 55.2717382,36.8290704 54.9298837,36.6592266 L54.8432164,36.6592266 C54.1595076,36.3146863 53.5576512,35.8827977 53.1291295,35.2762127 L53.0424621,35.1888644 C52.6139404,34.5822794 52.272086,33.8931988 52.1854187,33.1167699 L52.1854187,33.0342744 C52.0987513,32.6897341 52.0987513,32.2578455 52.1854187,31.9133052 C52.272086,31.5687649 52.3587533,31.1368764 52.5272731,30.7923361 L52.5272731,30.7049878 C52.8691275,30.0159072 53.2976492,29.4093222 53.8995056,28.9774337 L53.9861729,28.8900854 C54.5880293,28.4581969 55.2717382,28.1136566 56.0421143,28.0263083 L56.1287816,28.0263083 C56.4706361,28.0263083 56.8991578,28.0263083 57.2410122,28.0263083 C57.669534,28.1088039 58.0113884,28.1961521 58.3532428,28.365996 Z" id="Shape"></path>
                    <path d="M78.1519101,14.7282082 L78.1519101,12.8182394 L75.5045673,12.8182394 C75.415331,12.0011405 75.241816,11.1840416 75.0633435,10.4537594 L77.5322138,9.36088958 L76.8282387,7.6347681 L74.3593684,8.72763792 C74.0073809,8.00246262 73.566157,7.27218045 73.035697,6.72574554 L74.9790647,4.8157768 L73.6553933,3.45224297 L71.8012618,5.45413534 C71.1815655,4.90770043 70.5668267,4.45318915 69.857894,4.0906015 L70.9188142,1.54738109 L69.2431552,0.822205795 L68.1822351,3.36542621 C67.47826,3.09476219 66.6800911,3.00283856 65.8868797,2.91091493 L65.8868797,0 L63.769997,0 L63.769997,2.72706767 C62.9767856,2.8189913 62.1835743,2.99773169 61.4746417,3.18157895 L60.4137215,0.638358537 L58.7380625,1.36353383 L59.7989827,3.90675425 C59.0950076,4.26934189 58.386075,4.72385317 57.8556149,5.27028808 L56.0014834,3.26839571 L54.677812,4.63192954 L56.5319435,6.54189829 C56.0014834,7.18025682 55.5602596,7.81350849 55.2082721,8.54379066 L52.7394018,7.45092084 L52.0354267,9.17704232 L54.504297,10.2699121 C54.2415457,10.9950874 54.1523095,11.8172932 54.0630732,12.6343922 L51.4157303,12.6343922 L51.4157303,14.5443609 L54.0630732,14.5443609 C54.1523095,15.3614598 54.3258244,16.1785588 54.504297,16.9088409 L52.0354267,18.0017107 L52.7394018,19.7278322 L55.2082721,18.6349624 C55.5602596,19.3601377 56.0014834,20.0904199 56.5319435,20.6368548 L54.5885757,22.5468235 L55.9122471,23.9103574 L57.7663786,22.0003886 C58.386075,22.5468235 59.0008138,23.0013348 59.7097464,23.3639224 L58.6488263,25.9071429 L60.3244852,26.6323182 L61.3854054,24.0890977 C62.0893804,24.3597618 62.8875494,24.4516854 63.6807607,24.543609 L63.6807607,27.2706767 L65.5348922,27.2706767 L65.5348922,24.543609 C66.3281036,24.4516854 67.1213149,24.272945 67.8302475,24.0890977 L68.8911677,26.6323182 L70.5668267,25.9071429 L69.5059065,23.3639224 C70.2098816,23.0013348 70.9188142,22.5468235 71.4492743,22.0003886 L73.3034058,23.9103574 L74.6270772,22.5468235 L72.6837094,20.6368548 C73.2141695,19.9984962 73.6553933,19.3652446 74.0073809,18.6349624 L76.4762512,19.7278322 L77.1802262,18.0017107 L74.7113559,16.9088409 C74.9741072,16.1836656 75.0633435,15.3614598 75.1525797,14.5443609 L78.1519101,14.5443609 L78.1519101,14.7282082 Z M64.7416809,22.9094112 C59.888219,22.9094112 55.9172047,18.8188097 55.9172047,13.8191856 C55.9172047,8.81956154 59.888219,4.72896004 64.7416809,4.72896004 C69.5951428,4.72896004 73.566157,8.81956154 73.566157,13.8191856 C73.566157,18.8188097 69.5951428,22.9094112 64.7416809,22.9094112 Z" id="Shape"></path>
                </g>
                <path d="M8.55641377,3.00679343 C7.79063427,1.78553551 6.74745506,0.999577442 5.14947641,0.999577442 C3.3405177,0.999577442 2.01993878,2.50700471 2.01993878,4.30060133 C2.01993878,6.09419795 3.68824411,6.88418658 5.07914973,7.52907525 L8.27901405,9.25012189 C9.52926629,10.1126605 10.2247191,11.1162685 10.2247191,12.6922152 C10.2247191,15.5619698 7.64998089,17.7142857 4.93849635,17.7142857 C2.57473821,17.7142857 0.765779497,16.2068584 0,13.9860231 L0.902525836,13.5547538 C1.59797864,15.4209004 2.91855757,16.7106777 4.93458931,16.7106777 C7.16160111,16.7106777 9.10730616,14.9170811 9.10730616,12.6236958 C9.10730616,10.6849992 7.16160111,9.82649114 5.70036881,9.10905249 L2.64115786,7.46055583 C1.52765196,6.74311718 0.902525836,5.73950918 0.902525836,4.37718186 C0.902525836,1.79359662 2.71148455,0 5.21198903,0 C6.88029436,0 8.54859969,0.93105802 9.31437919,2.43848529 L8.55641377,3.00679343 Z" id="Path"></path>
                <path d="M29.2134831,3.78424633 C27.8733424,2.14293483 25.6133416,1.07146741 23.4960778,1.07146741 C19.2615501,1.07146741 15.732777,4.78347999 15.732777,9.00112887 C15.732777,10.9995962 16.5812685,12.9298427 17.9927778,14.3584659 C19.404287,15.7148554 21.4501824,16.7140891 23.4960778,16.7140891 C25.4706047,16.7140891 27.9407459,15.6426216 29.2134831,14.0695309 L29.2134831,15.5703879 C27.5918335,16.9267773 25.6133416,17.7133227 23.4960778,17.7133227 C18.7699008,17.7855565 14.6067416,13.7846089 14.6067416,8.92889512 C14.6067416,4.00094761 18.6985324,0 23.5674462,0 C25.6133416,0 27.7306055,0.858779126 29.2134831,2.21516859 L29.2134831,3.78424633 L29.2134831,3.78424633 Z" id="Path"></path>
                <rect id="Rectangle" x="33.5955056" y="0" width="1.46067416" height="17.7142857"></rect>
                <polygon id="Path" points="43.3644717 1.02411357 43.3644717 7.46492421 49.4753832 7.46492421 49.4753832 8.56307009 43.3644717 8.56307009 43.3644717 16.6161398 49.6629213 16.6161398 49.6629213 17.7142857 42.3595506 17.7142857 42.3595506 0 49.6629213 0 49.6629213 1.02411357"></polygon>
                <polygon id="Path" points="70.1123596 17.7142857 56.5063878 2.64930468 56.5063878 17.157775 55.505618 17.157775 55.505618 0 69.0478703 14.9944374 69.0478703 0.278255373 70.1123596 0.278255373"></polygon>
                <polygon id="Path" points="80.18937 17.7142857 79.0241131 17.7142857 79.0241131 1.02411357 74.494382 1.02411357 74.494382 0 84.7191011 0 84.7191011 1.02411357 80.18937 1.02411357"></polygon>
                <rect id="Rectangle" x="87.6404494" y="0" width="1.46067416" height="17.7142857"></rect>
                <polygon id="Path" points="96.1373183 1.02411357 96.1373183 7.46492421 102.100621 7.46492421 102.100621 8.56307009 96.1373183 8.56307009 96.1373183 17.7142857 94.9438202 17.7142857 94.9438202 0 102.247191 0 102.247191 1.02411357"></polygon>
                <rect id="Rectangle" x="108.089888" y="0" width="1.46067416" height="17.7142857"></rect>
                <path d="M128.539326,3.8410263 C127.199185,2.2062919 124.939184,1.1391181 122.82192,1.1391181 C118.587393,1.1391181 115.05862,4.8362558 115.05862,9.03700361 C115.05862,11.0274626 115.907111,12.9499742 117.31862,14.3728726 C118.73013,15.7238267 120.776025,16.7190562 122.82192,16.7190562 C124.796447,16.7190562 127.266589,15.6518824 128.539326,14.0850954 L128.539326,15.5799381 C126.917676,16.9308922 124.939184,17.7142857 122.82192,17.7142857 C118.095744,17.7142857 113.932584,13.7293708 113.932584,8.89311501 C113.932584,3.9849149 118.024375,0 122.82192,0 C124.867816,0 126.98508,0.855337803 128.467957,2.2062919 L128.467957,3.8410263 L128.539326,3.8410263 Z" id="Path"></path>
            </g>
        </g>
    </g>
</svg>