<?xml version="1.0" encoding="utf-8"?>
<!-- Generator: Adobe Illustrator 25.0.0, SVG Export Plug-In . SVG Version: 6.00 Build 0)  -->
<svg version="1.1" id="Layer_1" xmlns="http://www.w3.org/2000/svg" xmlns:xlink="http://www.w3.org/1999/xlink" x="0px" y="0px"
	 viewBox="0 0 62.36 62.36" style="enable-background:new 0 0 62.36 62.36;" xml:space="preserve">
<style type="text/css">
	.st0{fill:#F7F9FB;}
	.st1{opacity:0.3;fill:#E94955;}
	.st2{fill:#1E3961;}
	.st3{fill:#E94955;}
</style>
<g>
	<path class="st0" d="M9.73,25.96L25.96,9.73c7.37-7.37,19.31-7.37,26.67,0l0,0C60,17.1,60,29.04,52.63,36.4L36.4,52.63
		C29.04,60,17.1,60,9.73,52.63l0,0C2.36,45.27,2.36,33.32,9.73,25.96z"/>
	<circle class="st1" cx="19.38" cy="28.88" r="9.86"/>
	<path class="st3" d="M19.45,30.06l-0.05,0c-0.63,0.02-1.15-0.46-1.19-1.09c0-0.01,0-0.02,0-0.02c-0.04-0.63,0.42-1.18,1.05-1.23
		l0.05,0c0.64-0.05,1.21,0.42,1.25,1.06c0,0.03,0,0.05,0,0.08C20.59,29.49,20.09,30.03,19.45,30.06z M19.55,47.43
		c0.39-0.1,0.63-0.49,0.54-0.89c-2.12-8.65-1.2-13.99-1.19-14.05l0,0c0.07-0.4-0.19-0.78-0.59-0.85c-0.4-0.07-0.78,0.19-0.85,0.59
		c-0.04,0.23-0.99,5.67,1.21,14.66c0.08,0.33,0.38,0.56,0.71,0.56C19.44,47.45,19.5,47.44,19.55,47.43z M21.73,26.46
		c0.04-0.08,0.98-1.89,3.69-2.29c0.4-0.06,0.68-0.43,0.62-0.83c-0.06-0.4-0.43-0.68-0.83-0.62c-3.51,0.52-4.74,3-4.79,3.1
		c-0.18,0.36-0.02,0.8,0.34,0.97c0.1,0.05,0.21,0.08,0.32,0.08C21.34,26.86,21.6,26.71,21.73,26.46z"/>
	<path class="st2" d="M35.19,34.81c0.12,0.49-0.18,0.99-0.67,1.11c-0.92,0.23-1.8,0.34-2.62,0.4v12.5c0,0.31-0.14,0.61-0.37,0.82
		c-0.24,0.21-0.55,0.3-0.87,0.25c-0.52-0.07-0.92-0.6-0.92-1.19V36.32c-1.55-0.1-2.57-0.39-2.65-0.41
		c-0.49-0.14-0.77-0.65-0.63-1.14c0.14-0.49,0.65-0.77,1.14-0.63c0.06,0.02,3.06,0.84,6.49-0.01
		C34.57,34.01,35.07,34.31,35.19,34.81z M17.5,12.64c0-0.54-0.44-0.98-0.98-0.98c-0.54,0-0.98,0.44-0.98,0.98c0,0.49,0,1,0.01,1.53
		c0.03,3.08,0.06,6.91-0.86,9.42c-1.72,4.7-1.99,7.29-2.14,9.97c-0.38,6.78,1.44,15.97,1.52,16.36c0.09,0.47,0.5,0.79,0.96,0.79
		c0.06,0,0.13-0.01,0.19-0.02c0.53-0.11,0.88-0.63,0.77-1.16c-0.02-0.09-1.85-9.32-1.49-15.86c0.14-2.51,0.39-4.96,2.02-9.4
		c1.04-2.85,1.01-6.88,0.98-10.12C17.51,13.63,17.5,13.12,17.5,12.64z M49.09,33.51c-0.15-2.67-0.42-5.27-2.14-9.97
		c-0.92-2.51-0.88-6.34-0.86-9.42c0.01-0.53,0.01-1.04,0.01-1.53c0-0.54-0.44-0.98-0.98-0.98c-0.54,0-0.98,0.44-0.98,0.98
		c0,0.48,0,0.99-0.01,1.51c-0.03,3.24-0.07,7.27,0.98,10.12c1.63,4.45,1.88,6.89,2.02,9.4c0.37,6.53-1.47,15.76-1.49,15.86
		c-0.11,0.53,0.24,1.05,0.77,1.16c0.07,0.01,0.13,0.02,0.19,0.02c0.46,0,0.87-0.32,0.96-0.79C47.65,49.48,49.47,40.29,49.09,33.51z"
		/>
</g>
</svg>
