<?xml version="1.0" encoding="utf-8"?>
<!-- Generator: Adobe Illustrator 25.0.0, SVG Export Plug-In . SVG Version: 6.00 Build 0)  -->
<svg version="1.1" id="Layer_1" xmlns="http://www.w3.org/2000/svg" xmlns:xlink="http://www.w3.org/1999/xlink" x="0px" y="0px"
	 viewBox="0 0 62.36 62.36" style="enable-background:new 0 0 62.36 62.36;" xml:space="preserve">
<style type="text/css">
	.st0{fill:#F7F9FB;}
	.st1{opacity:0.3;fill:#E94955;}
	.st2{fill:#1E3961;}
	.st3{fill:#E94955;}
</style>
<g>
	<path class="st0" d="M9.73,25.96L25.96,9.73c7.37-7.37,19.31-7.37,26.67,0l0,0C60,17.1,60,29.04,52.63,36.4L36.4,52.63
		C29.04,60,17.1,60,9.73,52.63l0,0C2.36,45.27,2.36,33.32,9.73,25.96z"/>
	<circle class="st1" cx="41.3" cy="31.74" r="9.86"/>
	<path class="st2" d="M47.21,35.9l-2.9,13.47c-0.11,0.51-0.64,0.85-1.15,0.74c-0.52-0.11-0.86-0.63-0.74-1.15l2.9-13.47
		c0.52-2.36,0.35-4.81-0.48-7.08c-0.83-2.27-2.29-4.26-4.22-5.75L21.74,8.05c-0.2-0.16-0.34-0.39-0.37-0.64
		c-0.03-0.26,0.04-0.51,0.19-0.72c0.16-0.2,0.39-0.34,0.64-0.37c0.04-0.01,0.08-0.01,0.12-0.01c0.21,0,0.42,0.07,0.59,0.2
		l18.89,14.61c2.22,1.72,3.9,4,4.85,6.62v0C47.62,30.36,47.81,33.18,47.21,35.9z M23.89,32.24L10.18,21.26
		c-0.18-0.14-0.39-0.21-0.61-0.21c-0.28,0-0.57,0.12-0.76,0.36c-0.16,0.2-0.24,0.46-0.21,0.71c0.03,0.26,0.16,0.49,0.36,0.65
		l13.71,10.97c1.19,0.96,1.88,2.43,1.83,3.94l-0.38,11.53c-0.02,0.53,0.4,0.98,0.94,1c0,0,0,0,0,0c0.56,0,0.98-0.41,1-0.94
		l0.38-11.53C26.51,35.64,25.56,33.57,23.89,32.24z"/>
	<path class="st3" d="M41.37,32.79l-0.05,0c-0.58,0.02-1.07-0.43-1.11-1.01c0-0.01,0-0.02,0-0.02c-0.04-0.58,0.39-1.09,0.97-1.14
		l0.05,0c0.59-0.05,1.12,0.39,1.15,0.99c0,0.02,0,0.05,0,0.07C42.43,32.27,41.96,32.77,41.37,32.79z M38.98,50.52
		c0.5-2.14,0.98-3.8,1.41-5.26c0.87-2.96,1.56-5.29,1.64-9.41c0.01-0.4-0.31-0.74-0.72-0.75c-0.39-0.01-0.74,0.31-0.75,0.72
		c-0.08,3.92-0.71,6.06-1.58,9.02c-0.44,1.48-0.93,3.16-1.44,5.34c-0.09,0.39,0.15,0.79,0.55,0.88c0.06,0.01,0.11,0.02,0.17,0.02
		C38.6,51.09,38.9,50.86,38.98,50.52z M39.94,28.83c0.33-0.23,0.42-0.68,0.19-1.02c-2.46-3.59-3.86-4.32-6.17-5.54
		c-2.31-1.21-5.48-2.87-11.79-8.34c-0.31-0.26-0.77-0.23-1.03,0.07c-0.27,0.31-0.23,0.77,0.07,1.03c6.44,5.58,9.83,7.36,12.07,8.53
		c2.26,1.18,3.39,1.78,5.64,5.07c0.14,0.21,0.37,0.32,0.61,0.32C39.67,28.96,39.81,28.92,39.94,28.83z"/>
</g>
</svg>
