<?xml version="1.0" encoding="utf-8"?>
<!-- Generator: Adobe Illustrator 25.0.0, SVG Export Plug-In . SVG Version: 6.00 Build 0)  -->
<svg version="1.1" id="Layer_1" xmlns="http://www.w3.org/2000/svg" xmlns:xlink="http://www.w3.org/1999/xlink" x="0px" y="0px"
	 viewBox="0 0 62.36 62.36" style="enable-background:new 0 0 62.36 62.36;" xml:space="preserve">
<style type="text/css">
	.st0{fill:#F7F9FB;}
	.st1{opacity:0.3;fill:#E94955;}
	.st2{fill:#1E3961;}
	.st3{fill:#E94955;}
</style>
<g>
	<path class="st0" d="M9.73,26.3l16.23-16.23c7.37-7.37,19.31-7.37,26.67,0l0,0c7.37,7.37,7.37,19.31,0,26.67L36.4,52.97
		c-7.37,7.37-19.31,7.37-26.67,0l0,0C2.36,45.6,2.36,33.66,9.73,26.3z"/>
	<circle class="st1" cx="36.1" cy="36.91" r="9.86"/>
	<path class="st2" d="M47.92,40.16c-0.35,4.78-3.09,5.97-9.11,6.85l-1.23,0.18c-1.45,0.22-2.19,0.4-2.86,0.69
		c-1.32,0.8-2.34,1.63-4.36,3.57c-2.76,2.64-5.24,4.15-8.57,5.19l-0.7,0.2l-0.92,0.46c-0.51,0.36-1.01,0.66-1.5,0.91
		c-0.5,0.25-1.04,0.43-1.66,0.55c-0.62,0.12-1.17,0.17-1.69,0.17c-0.25,0-0.5-0.01-0.74-0.04c-0.71-0.1-1.37-0.41-1.91-0.92
		c-0.55-0.48-0.77-0.96-0.77-1.72c0-0.73,0.38-1.49,1.05-2.1c0.62-0.58,1.31-1.06,1.92-1.37c0.16-0.09,0.31-0.19,0.51-0.35
		l0.46-0.39c0.21-0.18,0.37-0.32,0.55-0.45l0.17-0.13c0.15-0.1,0.27-0.2,0.42-0.36l0.43-0.49c0.33-0.35,0.65-0.8,0.86-1.21
		l0.11-0.23c0.58-1.31,1.41-2.62,3.16-4.99l1.95-2.63c2.87-3.91,3.77-5.67,3.44-6.73c-0.77-2.42-3.31-7.35-7.77-15.09l-3.35-5.74
		l-2.38-4.01c-0.26-0.45-0.12-1.03,0.33-1.29c0.22-0.13,0.47-0.17,0.71-0.1c0.24,0.06,0.45,0.22,0.58,0.43l4.23,7.16l1.52,2.62
		l1.18,2.06c3.85,6.78,6,11.04,6.76,13.41c0.58,1.85-0.21,3.65-3.68,8.36l-1.97,2.64c-1.58,2.15-2.36,3.35-2.88,4.44l-0.1,0.21
		c-0.22,0.54-0.62,1.19-1.08,1.72l-0.67,0.75c-0.26,0.28-0.49,0.48-0.74,0.64l-0.19,0.14l-0.47,0.4c-0.49,0.42-0.78,0.65-1.22,0.89
		c-0.48,0.24-1.02,0.63-1.52,1.09c-0.32,0.29-0.44,0.56-0.44,0.71c0,0.19,0,0.19,0.07,0.26l0.07,0.06c0.27,0.25,0.57,0.4,0.88,0.45
		c0.51,0.06,1.12,0.02,1.84-0.11c0.44-0.09,0.83-0.22,1.17-0.39c0.4-0.2,0.82-0.46,1.28-0.78c0.25-0.17,0.96-0.53,1.43-0.68
		l0.08-0.02c3.23-0.94,5.47-2.21,7.98-4.51l1.27-1.21c1.6-1.5,2.61-2.29,3.98-3.11l0.47-0.19c0.81-0.31,1.68-0.5,3.31-0.74
		l0.91-0.13c5.72-0.83,7.26-1.88,7.49-5.09c0.08-1.72-0.6-2.89-2.91-4.99l-1.29-1.15c-1.03-0.93-1.52-1.44-2.04-2.11
		c-1.03-1.35-3.21-6.73-7.53-18.57l-1.19-3.29L29.3,4.68c-0.17-0.49,0.1-1.03,0.59-1.19c0.24-0.08,0.5-0.07,0.72,0.05
		c0.23,0.11,0.4,0.3,0.48,0.54l1.8,5.35l1.84,5.06c3.57,9.74,5.63,14.85,6.49,16.08l0.06,0.09c0.4,0.52,0.82,0.95,1.6,1.67l1.56,1.4
		C47.22,36.24,48.03,37.75,47.92,40.16z"/>
	<path class="st3" d="M34.97,33.96c-0.28,0-0.55-0.16-0.67-0.43L25.55,14.1c-0.17-0.37,0-0.8,0.37-0.97c0.37-0.17,0.8,0,0.97,0.37
		l8.74,19.43c0.17,0.37,0,0.8-0.37,0.97C35.17,33.94,35.07,33.96,34.97,33.96z M24.77,48.45c2.84-1.66,4.09-3.38,5.29-5.05
		c1.07-1.49,2.09-2.89,4.27-4.19c0.35-0.21,0.46-0.66,0.25-1.01c-0.21-0.35-0.66-0.46-1.01-0.25c-2.43,1.46-3.59,3.05-4.7,4.59
		c-1.17,1.61-2.27,3.14-4.85,4.64c-0.35,0.2-0.47,0.65-0.26,1c0.14,0.23,0.38,0.36,0.63,0.36C24.53,48.55,24.65,48.52,24.77,48.45z
		 M36.09,37.44c0.54,0.01,0.99-0.42,1.01-0.96c0.01-0.54-0.42-0.99-0.96-1.01c-0.54-0.01-0.99,0.42-1.01,0.96
		C35.12,36.97,35.55,37.42,36.09,37.44z"/>
</g>
</svg>
