<?xml version="1.0"?>
<svg xmlns="http://www.w3.org/2000/svg" viewBox="0 0 1000 600">
  <defs>
    <style>.cls-1{isolation:isolate;}.cls-2{fill:#cad2db;}.cls-3{fill:#f6f7f8;}.cls-4{fill:#e5e8ee;}.cls-5,.cls-7{fill:#624433;}.cls-6{fill:#112242;}.cls-12,.cls-7{opacity:0.5;}.cls-7{mix-blend-mode:multiply;}.cls-8{fill:#e4404a;}.cls-9{fill:#1b3156;}.cls-10{fill:#de6062;}.cls-11{fill:#221f20;}.cls-12,.cls-13{fill:#a3b6c6;}.cls-14{fill:#9aa7b8;}.cls-15{fill:#fff;}.cls-16{fill:#fbe7e5;}</style>
  </defs>
  <g class="cls-1">
    <g id="Layer_1" data-name="Layer 1">
      <polygon class="cls-2" points="624.24 421.3 602.83 498.94 585.36 498.86 592.21 421.16 624.24 421.3"/>
      <polygon class="cls-2" points="746.79 421.3 768.21 498.94 785.67 498.86 778.82 421.16 746.79 421.3"/>
      <polygon class="cls-2" points="637.84 421.3 659.25 498.94 676.73 498.86 669.87 421.16 637.84 421.3"/>
      <polygon class="cls-2" points="529.12 416.27 507.7 493.9 490.23 493.83 497.09 416.13 529.12 416.27"/>
      <path class="cls-3" d="M793.11,193.17l-11.93-33.76c-5.95-16.82-21-28-37.84-28.06l-286.47-2.87c-24.89-.11-43.87,23.74-39.77,50l29.54,188.46C452,401,479.53,426,511.88,426.11L798.54,429l69.34-217.75L817.17,211C806.46,211,796.89,203.86,793.11,193.17Z"/>
      <path class="cls-4" d="M521.8,208c-10.7,0-20.27-7.14-24-17.84l-11.93-33.75c-5.44-15.37-18.48-26-33.53-27.77-22.59,2.62-39,25.11-35.19,49.69l29.54,188.46c5.34,34.07,32.89,59.08,65.24,59.23l130.72.58L572.52,208.19Z"/>
      <path class="cls-4" d="M830.73,327.22,602.3,324.6a2.43,2.43,0,0,0-2.44,2.42l-.22,55.11a2.44,2.44,0,0,0,2.42,2.44l228.43,2.61a2.44,2.44,0,0,0,2.44-2.42l.21-55.11A2.41,2.41,0,0,0,830.73,327.22Z"/>
      <path class="cls-3" d="M793.29,429l-158.72-2.3c-31-.14-58.22-22.83-66.63-55.6l-31.6-123.15c-4.41-17.22,4.72-35.11,20.42-40s32,5.17,36.41,22.39l27.05,105.43c4,15.44,16.77,26.12,31.38,26.19l125.72,2.15c14.23.07,26.86-9.95,31.28-24.79L840.52,232c5.06-17,21.72-26.29,37.22-20.74s24,23.83,18.9,40.83l-37,124.22C850.31,407.83,823.48,429.1,793.29,429Z"/>
      <rect class="cls-3" x="125.41" y="246.22" width="212.01" height="242.03" transform="translate(1.53 -0.96) rotate(0.24)"/>
      <rect class="cls-3" x="101.95" y="228.35" width="257.44" height="25.91" transform="translate(1.01 -0.96) rotate(0.24)"/>
      <rect class="cls-4" x="146.26" y="283.91" width="165.29" height="8.2" transform="translate(1.2 -0.95) rotate(0.24)"/>
      <rect class="cls-4" x="145.86" y="379.19" width="165.29" height="8.2" transform="translate(1.6 -0.95) rotate(0.24)"/>
      <path class="cls-4" d="M244.67,158.92l-133-.55,0,3.83,68.25.29a12.44,12.44,0,0,1,12.4,12.5h0a12.44,12.44,0,0,1-12.5,12.4l-68.25-.28,0,3.59,133,.55a16.16,16.16,0,0,0,16.23-16.1h0A16.17,16.17,0,0,0,244.67,158.92Z"/>
      <path class="cls-2" d="M198.34,174.9h0a16.17,16.17,0,0,0-16.1-16.24l-70.6-.29,0,3.83,68.25.29a12.44,12.44,0,0,1,12.4,12.5h0a12.44,12.44,0,0,1-12.5,12.4l-68.25-.28,0,3.59,70.61.29A16.16,16.16,0,0,0,198.34,174.9Z"/>
      <path class="cls-3" d="M179.87,162.5l-68.25-.28v.08a12.44,12.44,0,0,1,11,12.41h0A12.45,12.45,0,0,1,111.52,187v.08l68.25.28a12.44,12.44,0,0,0,12.5-12.4h0A12.45,12.45,0,0,0,179.87,162.5Z"/>
      <path class="cls-4" d="M192.27,174.87a12.44,12.44,0,0,0-12.4-12.5l-68.25-.29v.09a12.42,12.42,0,0,1,8,4.31c13.66-1,54.38-2.11,58.57,20.78h1.57A12.44,12.44,0,0,0,192.27,174.87Z"/>
      <path class="cls-4" d="M133.05,190.79l139.4.58,0,4.4-71.52-.3c-7.2,0-13.07,6.35-13.1,14.24h0c0,7.89,5.78,14.32,13,14.35l71.51.3v4.12l-139.4-.58c-9.35,0-16.9-8.38-16.86-18.63h0C116.08,199,123.7,190.75,133.05,190.79Z"/>
      <path class="cls-2" d="M181.45,209.55h0c0-10.25,7.66-18.53,17-18.49l74,.31,0,4.4-71.52-.3c-7.2,0-13.07,6.35-13.1,14.24h0c0,7.89,5.78,14.32,13,14.35l71.51.3v4.12l-74-.31C189,228.13,181.41,219.79,181.45,209.55Z"/>
      <path class="cls-3" d="M200.91,195.49l71.52.29v.1c-6.5.79-11.57,6.81-11.6,14.15h0c0,7.33,5,13.4,11.48,14.24v.1l-71.51-.3c-7.21,0-13-6.45-13-14.35h0C187.84,201.83,193.71,195.46,200.91,195.49Z"/>
      <path class="cls-4" d="M187.81,209.57c0-7.89,5.9-14.27,13.11-14.24l71.51.3v.1a12.73,12.73,0,0,0-8.43,4.88c-14.3-1.3-57-2.93-61.56,23.32H200.8C193.59,223.89,187.77,217.47,187.81,209.57Z"/>
      <path class="cls-5" d="M217.58,552.09s-16.74-2-22.07-.87S182.17,561,182.17,561Z"/>
      <path class="cls-5" d="M404.47,411.62,361.86,525.8s-104-82.19-124.76-98c-3.34-2.53-6.65-5.09-9.84-7.61-13.87-10.95-61-88.53-45.09-108.95s37.52-103.82,38.74-109c.61-2.57.62-12.68.47-22.24-.07-4.73-.19-9.33-.28-12.8-.11-3.68-.19-6.1-.19-6.1l46.52-7.92s3.48,34.13,7.77,41.85,24.85,32.5,26.69,47.13,2.14,32,0,44.8-5,52.41,1.49,63.08S312.9,445.61,404.47,411.62Z"/>
      <path class="cls-5" d="M873,520.8s17-23.43,34.67-18.61c13.62,3.72,15,16.45,25.15,20.41,13.95,5.42,53.66,23.83,58.34,24.46s9.84,6.44,4.63,9.69-17.61.55-23.47,1.66-85.8-7.77-100.92-12.72S873,520.8,873,520.8Z"/>
      <path class="cls-5" d="M256.18,528.81s.15,28.24-2,33.1a20.1,20.1,0,0,1-8.87,8.92c-1.71.72-23.4-.08-29.32.69s-54.85.48-53.23-1.4S176.6,556.3,203.43,554c34.89-2.95,28.39-13,31.52-23.15C237.44,522.76,256.18,528.81,256.18,528.81Z"/>
      <path class="cls-5" d="M275.45,49c-14.12-7-49.3-13.67-71,22.17,0,0-1.2,11.26-4.4,19.88-4.24,11.4-7.51,28.79-8.84,38.59-1.13,8.41-3,29.58,6.26,33.34s47.06,11.73,77.6-13.41S332.48,77.11,275.45,49Z"/>
      <path class="cls-6" d="M204.48,71.14s5.08-5.35,29.18,16.67c18.26,16.68,7.31,22.64,15.94,27.9,21.83,13.32,19.33,38.41,19.33,38.41s54.84-28.74,42-76.83S218.93,24.66,204.48,71.14Z"/>
      <ellipse class="cls-6" cx="323.05" cy="73.41" rx="28.5" ry="28.32"/>
      <ellipse class="cls-6" cx="287.63" cy="55.85" rx="23.48" ry="23.33"/>
      <ellipse class="cls-6" cx="294.22" cy="111.75" rx="23.48" ry="23.33"/>
      <ellipse class="cls-6" cx="228.31" cy="51.95" rx="19.15" ry="19.03"/>
      <ellipse class="cls-6" cx="257.27" cy="41.57" rx="17.68" ry="17.57"/>
      <ellipse class="cls-6" cx="204.48" cy="66.95" rx="12.31" ry="12.23"/>
      <path class="cls-6" d="M207.74,67.37s3.21,44.12,41.86,49.71c0,0,9.22.89,14.54,15.71s25.43-5.63,25.43-5.63l21.54-40.88L278,52l-32.21.86Z"/>
      <path class="cls-7" d="M257,160.63s-21.1,12.65-35.57,19.36c-.07-4.73-.19-9.33-.28-12.8A86.38,86.38,0,0,0,257,160.63Z"/>
      <path class="cls-5" d="M290.56,276.74c-1.65,23.47-35.26,54.86-58,36.92h0c-4.78-3.76-8.94-9.72-12-18.45h0a83.9,83.9,0,0,1-3.28-12.52C204.35,213.81,247,198.27,247,198.27,287.47,188.52,292.71,246.27,290.56,276.74Z"/>
      <path class="cls-8" d="M228.31,57.32s31.12-2.59,51.28,39.06c0,0,6.39-15.19.18-28.15C273.88,55.94,256.18,45.51,228.31,57.32Z"/>
      <path class="cls-6" d="M261.41,122.47a30.09,30.09,0,0,0,0,4.26c1.49,3.22,7.75,13.62,6.21,28.24,0,0,28.32-6.17,28-30.19"/>
      <path class="cls-5" d="M252.88,113.65c2.09-4.42,10.06-9,14.74.37s-14.6,26.26-19.73,21.55S250.71,118.21,252.88,113.65Z"/>
      <path class="cls-7" d="M233.66,318.2c-4.77-3.76-10.42-4.74-13.49-13.46a97.24,97.24,0,0,1-3.39-27c.4-11.07,5.61-42.11,5.61-42.11C239.33,269,233.66,318.2,233.66,318.2Z"/>
      <path class="cls-9" d="M384.21,535.91c17.34-16,16.94-43.15,20.67-65.5,4.62-28.12,14.92-53.48,16.49-59.91,5.85,1.74,15.43-3.15,40.12,18,62.88,53.84,7.11,17.15,172,62.84,70.25,19.64,86.72-18.68,222.33,6.32,20.93,3.83,26.17,5.14,23.85,40.07-1.56,22.67-18.34,11.25-69,12.26-173.38,3.14-300.8,19.77-385.1.72C421.75,549.85,379.79,540,384.21,535.91Z"/>
      <path class="cls-10" d="M252.75,197.34c-.14.13-.32.25-.1.07Z"/>
      <path class="cls-8" d="M367,409.15c-34.91.47-59.15-44.06-64-66.62-3.27-15.26-1.5-22.75.29-65.22,1.62-38.3,2.46-56.51-27-79-7.46-5.7-38.92-8.92-57.59,12.48-15.95,18.26-47.38,82.5-48.27,109.41-.85,27.14,20.23,44.82,27,66.36-.2-.66,7.6,37.51,76,94.88,19.83,16.68,83.18,68.08,109.22,69.56,1.36,0,15.91-23.05,20.83-36.51,5.34-14.58,8.17-29.82,11-45C428.43,394.14,441.9,408.15,367,409.15ZM222.75,307.73c-15.05-16.27-18.93-39.31-8.43-67,9.78-25.74,11.5-38.94,35.26-42.87,13.36-2.21,39,4.45,43.24,38.18,3.46,27.6,4.11,55.07-1.85,77.74C275.41,348.39,243,329.88,222.75,307.73Z"/>
      <path class="cls-11" d="M302.43,296.25c-59.94-1.26-122.84-13.1-122.84-13.1l10.07-23.52s77.54,8.19,114.67,10.26Z"/>
      <polygon class="cls-12" points="310.64 297.35 312.9 271.5 309.93 271.28 307.35 297 310.64 297.35"/>
      <polygon class="cls-13" points="307.01 300.35 310.39 266.74 302.93 265.95 299.51 299.59 307.01 300.35"/>
      <path class="cls-11" d="M235.4,456.46S296.05,418,321.7,381.7c0,0,12.51,13.08,20,18.69,0,0-38.52,41.54-85.82,73.79Z"/>
      <path class="cls-5" d="M247,198.24c12.07-2.12,32.48.2,39.74,23.22,7.37,23.41,6.09,33.78,5.9,42.71-.34,16-4.33,34-6.38,51.72s-10.22,58.64-8.58,68.67-.41,61.09-2.46,73.29c-3.52,21-20.29,84.63-20.29,84.63H233.08s-1.64-109.7,0-125.13,3.86-84.48-.73-110.33S205.27,205.57,247,198.24Z"/>
      <polygon class="cls-12" points="346.83 395.02 327.39 377.71 325.43 379.94 344.58 397.43 346.83 395.02"/>
      <polygon class="cls-13" points="347.07 399.71 322.05 376.84 316.93 382.3 341.95 405.21 347.07 399.71"/>
      <polygon class="cls-14" points="24.9 512.68 2 545.81 31.6 548.95 24.9 512.68"/>
      <path class="cls-2" d="M7.35,471l15,92.9a3.14,3.14,0,0,0,4.55,2.28l49.81-26.13a3.13,3.13,0,0,0,1.63-3.3L63.94,451.4A3.14,3.14,0,0,0,59.76,449L9.36,467.57A3.13,3.13,0,0,0,7.35,471Z"/>
      <polygon class="cls-15" points="14.21 473.1 27.37 559.05 72.79 536.74 59.4 455.49 14.21 473.1"/>
      <ellipse class="cls-16" cx="37.92" cy="460.45" rx="0.55" ry="1.05"/>
    </g>
  </g>
</svg>
