<?xml version="1.0" encoding="utf-8"?>
<!-- Generator: Adobe Illustrator 25.0.0, SVG Export Plug-In . SVG Version: 6.00 Build 0)  -->
<svg version="1.1" id="Layer_1" xmlns="http://www.w3.org/2000/svg" xmlns:xlink="http://www.w3.org/1999/xlink" x="0px" y="0px"
	 viewBox="0 0 150 150" style="enable-background:new 0 0 150 150;" xml:space="preserve">
<style type="text/css">
	.st0{fill:#F2B8AD;}
	.st1{fill:#E84954;}
	.st2{opacity:0.5;fill:#F2B8AD;}
	.st3{fill:#EDD9D6;}
	.st4{fill:#1D3861;}
	.st5{clip-path:url(#SVGID_2_);fill:#FFFFFF;}
	.st6{fill:#E5092B;}
	.st7{fill:#FF585A;}
	.st8{fill:#01B9CA;}
	.st9{fill:#0D92A6;}
	.st10{fill:#2AD8E5;}
	.st11{fill:#0F264B;}
	.st12{fill:#4B5F80;}
	.st13{fill:#617492;}
	.st14{fill:#7888A1;}
	.st15{fill:#A5B1C1;}
	.st16{fill:#D1D8E0;}
	.st17{fill:#E9ECF1;}
	.st18{fill:#F8F9FA;}
	.st19{clip-path:url(#SVGID_6_);fill:#FFFFFF;}
	
		.st20{clip-path:url(#SVGID_6_);fill:none;stroke:#E9ECF1;stroke-width:5;stroke-linecap:round;stroke-linejoin:round;stroke-miterlimit:10;}
	
		.st21{clip-path:url(#SVGID_6_);fill:none;stroke:#E84954;stroke-width:8;stroke-linecap:round;stroke-linejoin:round;stroke-miterlimit:10;}
	.st22{clip-path:url(#SVGID_6_);}
	.st23{fill:none;stroke:#1D3861;stroke-width:5;stroke-linecap:round;stroke-linejoin:round;stroke-miterlimit:10;}
	.st24{fill:none;stroke:#E9ECF1;stroke-width:5;stroke-linecap:round;stroke-linejoin:round;stroke-miterlimit:10;}
	.st25{fill:none;stroke:#D1D8E0;stroke-width:4;stroke-miterlimit:10;}
	.st26{fill:none;stroke:#01B9CA;stroke-width:8;stroke-linecap:round;stroke-linejoin:round;stroke-miterlimit:10;}
</style>
<path class="st25" d="M25.01,75c0-27.61,22.38-49.99,49.99-49.99l0,0"/>
<path class="st26" d="M75,25.01c27.61,0,49.99,22.38,49.99,49.99S102.61,124.99,75,124.99S25.01,102.61,25.01,75l0,0"/>
<g>
	<path class="st4" d="M68.54,62.08c1.75-1.39,3.98-2.08,6.7-2.08c1.87,0,3.48,0.33,4.84,1c1.36,0.67,2.39,1.57,3.08,2.72
		c0.69,1.15,1.04,2.44,1.04,3.88c0,1.65-0.44,3.07-1.32,4.24c-0.88,1.17-1.93,1.96-3.16,2.36v0.16c1.57,0.48,2.8,1.35,3.68,2.62
		s1.32,2.89,1.32,4.86c0,1.57-0.36,2.97-1.08,4.2c-0.72,1.23-1.79,2.19-3.2,2.9C79.03,89.65,77.33,90,75.36,90
		c-2.88,0-5.25-0.74-7.1-2.22c-1.85-1.48-2.85-3.61-2.98-6.38h4.4c0.11,1.41,0.65,2.57,1.64,3.46c0.99,0.89,2.32,1.34,4,1.34
		c1.63,0,2.88-0.45,3.76-1.34c0.88-0.89,1.32-2.05,1.32-3.46c0-1.87-0.59-3.19-1.78-3.98c-1.19-0.79-3.01-1.18-5.46-1.18h-1.04
		v-3.76h1.08c2.16-0.03,3.81-0.39,4.94-1.08c1.13-0.69,1.7-1.79,1.7-3.28c0-1.28-0.41-2.3-1.24-3.06c-0.83-0.76-2-1.14-3.52-1.14
		c-1.49,0-2.65,0.38-3.48,1.14c-0.83,0.76-1.32,1.7-1.48,2.82h-4.44C65.84,65.4,66.79,63.47,68.54,62.08z"/>
</g>
</svg>
