<?xml version="1.0" encoding="utf-8"?>
<!-- Generator: Adobe Illustrator 25.0.0, SVG Export Plug-In . SVG Version: 6.00 Build 0)  -->
<svg version="1.1" id="Layer_1" xmlns="http://www.w3.org/2000/svg" xmlns:xlink="http://www.w3.org/1999/xlink" x="0px" y="0px"
	 viewBox="0 0 56.69 56.69" style="enable-background:new 0 0 56.69 56.69;" xml:space="preserve">
<style type="text/css">
	.st0{fill:#F7F9FB;}
	.st1{opacity:0.3;fill:#E94955;}
	.st2{fill:#1E3961;}
	.st3{fill:#E94955;}
</style>
<g>
	<path class="st0" d="M6.9,23.12L23.12,6.9c7.37-7.37,19.31-7.37,26.67,0l0,0c7.37,7.37,7.37,19.31,0,26.67L33.57,49.8
		c-7.37,7.37-19.31,7.37-26.67,0l0,0C-0.47,42.43-0.47,30.49,6.9,23.12z"/>
	<path class="st2" d="M32.84,4.23c0.5,0,0.9,0.4,0.9,0.9v1.04c0,1.81,0.33,2.84,1.08,3.33c0.74,0.49,1.84,0.39,3.45-0.3
		c2.49-1.07,5.19-1.23,7.81-0.47c0.74,0.21,1.17,0.41,1.32,0.49c0.44,0.22,0.63,0.76,0.4,1.21c-0.11,0.22-0.29,0.38-0.52,0.45
		c-0.23,0.08-0.47,0.06-0.69-0.05c-0.03-0.01-0.11-0.05-0.24-0.1c-0.24-0.1-0.5-0.19-0.78-0.27c-2.22-0.64-4.49-0.51-6.59,0.39
		c-2.15,0.92-3.93,0.98-5.15,0.18c-1.24-0.82-1.9-2.5-1.9-4.87V5.14C31.94,4.64,32.34,4.23,32.84,4.23z M18.97,11.05
		c1.24-0.82,1.9-2.5,1.9-4.87V5.14c0-0.5-0.4-0.9-0.9-0.9c-0.5,0-0.9,0.4-0.9,0.9v1.04c0,1.81-0.33,2.84-1.08,3.33
		c-0.74,0.49-1.84,0.39-3.45-0.3c-2.49-1.07-5.19-1.23-7.81-0.47C5.99,8.96,5.56,9.16,5.41,9.23C4.96,9.46,4.78,10,5,10.44
		c0.22,0.44,0.76,0.63,1.21,0.4c0.03-0.01,0.11-0.05,0.24-0.1l0,0c0.24-0.1,0.5-0.19,0.78-0.27c0.92-0.27,1.85-0.4,2.77-0.4
		c1.3,0,2.59,0.26,3.82,0.79C15.97,11.79,17.75,11.85,18.97,11.05z M14.88,36.46c-0.11-0.65-0.11-0.65-1.47-4.04l-0.33-0.83
		c-0.15-0.37-0.46-1.1-0.7-1.65c-0.15-0.35-0.28-0.64-0.32-0.74c-0.09-0.24-0.18-0.43-0.25-0.6c-0.43-0.97-0.59-1.34-0.59-5.04
		c0-0.5-0.4-0.9-0.9-0.9c-1.21,0-2.25-0.19-3.09-0.57c-0.25-0.11-0.46-0.23-0.64-0.35L6.5,21.67l-0.05-0.04
		c-0.18-0.18-0.41-0.26-0.64-0.26c-0.23,0-0.46,0.09-0.64,0.26C5,21.8,4.91,22.03,4.91,22.27c0,0.24,0.09,0.47,0.26,0.64
		c0.16,0.16,0.55,0.49,1.32,0.83c1.01,0.45,2.58,0.67,2.6,0.67l0.33,0.04l0,0.33c0.03,2.96,0.21,3.35,0.63,4.28
		c0.1,0.23,0.22,0.48,0.34,0.8c0.05,0.12,0.2,0.47,0.37,0.87c0.24,0.55,0.52,1.2,0.65,1.52l0.32,0.8c1.3,3.24,1.3,3.24,1.4,3.84
		l0.04,0.25c0.07,0.4,0.11,0.78,0.11,1.21V49.3c0,0.5,0.4,0.9,0.9,0.9c0.5,0,0.9-0.4,0.9-0.9V38.36c0-0.53-0.04-1.03-0.14-1.53
		C14.91,36.68,14.89,36.56,14.88,36.46z M41.4,32.26c0.13-0.32,0.41-0.98,0.65-1.53c0.17-0.4,0.32-0.74,0.37-0.86
		c0.13-0.32,0.24-0.58,0.34-0.8c0.42-0.94,0.59-1.32,0.63-4.28l0-0.33l0.33-0.04c0.02,0,1.59-0.22,2.6-0.67
		c0.76-0.34,1.15-0.67,1.32-0.83c0.17-0.17,0.26-0.4,0.26-0.64c0-0.24-0.09-0.47-0.26-0.64c-0.35-0.35-0.92-0.35-1.27,0l-0.05,0.04
		l-0.09,0.06c-0.18,0.13-0.39,0.25-0.64,0.35c-0.84,0.38-1.89,0.57-3.09,0.57c-0.5,0-0.9,0.4-0.9,0.9c0,3.71-0.16,4.07-0.59,5.04
		c-0.08,0.17-0.16,0.36-0.25,0.6c-0.04,0.09-0.16,0.38-0.32,0.74c-0.24,0.56-0.55,1.28-0.7,1.65L39.4,32.4
		c-1.36,3.41-1.36,3.41-1.47,4.05c-0.02,0.1-0.04,0.22-0.06,0.37c-0.09,0.5-0.14,1-0.14,1.53V49.3c0,0.5,0.4,0.9,0.9,0.9
		c0.5,0,0.9-0.4,0.9-0.9V38.36c0-0.43,0.03-0.81,0.11-1.21l0.04-0.25c0.1-0.6,0.1-0.6,1.4-3.84L41.4,32.26z"/>
	<path class="st3" d="M25.93,19.6l-0.27,3.24c-0.29,3.48-0.03,5.05,0.77,8.45c1.27,5.4,1.23,11.03-0.11,16.42l-0.16,0.63
		c-0.1,0.41-0.52,0.66-0.93,0.56l-0.03-0.01c-0.41-0.1-0.66-0.52-0.56-0.93l0.16-0.63c1.28-5.14,1.32-10.52,0.11-15.68
		c-0.84-3.56-1.11-5.29-0.81-8.93l0.27-3.24c0.04-0.42,0.4-0.73,0.82-0.7l0.04,0C25.66,18.81,25.97,19.18,25.93,19.6z M23.88,40.34
		c0-0.02,0-0.04,0-0.05c0.01-0.43-0.33-0.77-0.76-0.78l-0.04,0c-0.42,0-0.76,0.33-0.77,0.75c0,0.01,0,0.01,0,0.02
		c-0.01,0.42,0.31,0.77,0.72,0.79l0.04,0C23.5,41.09,23.87,40.76,23.88,40.34z M22.27,37.2c0,0.01,0,0.01,0,0.02
		c0.03,0.42,0.37,0.74,0.79,0.73l0.04,0c0.42-0.02,0.76-0.38,0.73-0.8c0-0.02,0-0.04,0-0.05c-0.03-0.42-0.4-0.74-0.83-0.71l-0.04,0
		C22.55,36.42,22.25,36.78,22.27,37.2z M22.14,47.24l0.03,0.01c0.41,0.1,0.83-0.16,0.92-0.57c0-0.02,0.01-0.04,0.01-0.05
		c0.09-0.42-0.19-0.82-0.6-0.9l-0.03-0.01c-0.41-0.08-0.81,0.19-0.89,0.6c0,0.01,0,0.01,0,0.02C21.49,46.74,21.74,47.14,22.14,47.24
		z M22.73,44.17l0.04,0.01c0.42,0.06,0.82-0.23,0.87-0.65c0-0.02,0-0.04,0.01-0.05c0.05-0.42-0.26-0.8-0.68-0.84l-0.04,0
		c-0.42-0.04-0.78,0.26-0.84,0.67c0,0.01,0,0.01,0,0.02C22.04,43.73,22.32,44.11,22.73,44.17z M28.93,47.24l0.03,0.01
		c0.41,0.1,0.83-0.16,0.92-0.57c0-0.02,0.01-0.03,0.01-0.05c0.09-0.42-0.19-0.82-0.6-0.9l-0.03-0.01c-0.41-0.08-0.81,0.19-0.89,0.6
		c0,0.01,0,0.01,0,0.02C28.28,46.74,28.52,47.14,28.93,47.24z M29.91,39.5l-0.04,0c-0.42,0-0.76,0.33-0.77,0.75
		c0,0.01,0,0.01,0,0.02c-0.01,0.42,0.31,0.77,0.73,0.79l0.04,0c0.42,0.02,0.79-0.31,0.8-0.73c0-0.02,0-0.03,0-0.05
		C30.68,39.86,30.34,39.51,29.91,39.5z M29.75,42.63l-0.04,0c-0.42-0.04-0.78,0.26-0.84,0.67c0,0.01,0,0.01,0,0.02
		c-0.05,0.42,0.23,0.8,0.65,0.86l0.04,0.01c0.42,0.06,0.82-0.23,0.87-0.66c0-0.02,0-0.03,0.01-0.05
		C30.48,43.05,30.17,42.67,29.75,42.63z M30.62,37.14c0-0.02,0-0.03,0-0.05c-0.03-0.43-0.4-0.74-0.83-0.71l-0.03,0
		c-0.42,0.04-0.72,0.4-0.7,0.82c0,0.01,0,0.01,0,0.02c0.03,0.42,0.37,0.74,0.79,0.73l0.03,0C30.31,37.93,30.65,37.56,30.62,37.14z"
		/>
	<circle class="st1" cx="26.55" cy="41.69" r="9.86"/>
</g>
</svg>
