<?xml version="1.0" encoding="UTF-8"?>
<svg width="155px" height="32px" viewBox="0 0 155 32" version="1.1" xmlns="http://www.w3.org/2000/svg" xmlns:xlink="http://www.w3.org/1999/xlink">
    <!-- Generator: Sketch 63.1 (92452) - https://sketch.com -->
    <title>Group 13 Copy 2</title>
    <desc>Created with Sketch.</desc>
    <g id="Landing-page" stroke="none" stroke-width="1" fill="none" fill-rule="evenodd" opacity="0.8">
        <g id="PV---Home-web" transform="translate(-828.000000, -4898.000000)" fill-rule="nonzero">
            <g id="Group-13-Copy-2" transform="translate(828.000000, 4898.000000)">
                <path d="M-6.39488462e-14,0 L31,0 L31,32 L-6.39488462e-14,32 L-6.39488462e-14,0 Z M2.28113208,5.01818182 C3.67028302,11.52 4.91320755,18.0654545 6.22924528,24.5818182 C6.49245283,25.3672727 6.33160377,26.4 7.10660377,26.9090909 C8.42264151,27.1418182 9.82641509,27.0836364 11.2009434,26.9818182 C11.9320755,27.0109091 12.1075472,26.1090909 12.2245283,25.5563636 C13.175,20.9018182 14.1839623,16.3054545 15.1198113,11.6654545 C15.1929245,11.2290909 15.3245283,10.7927273 15.5292453,10.4290909 C16.6990566,15.4036364 17.6349057,20.4218182 18.7023585,25.4109091 C18.8485849,25.9490909 18.8778302,26.6036364 19.3896226,26.9381818 C20.8518868,27.1127273 22.3872642,27.1272727 23.8495283,26.9381818 C24.390566,26.6036364 24.4051887,25.9490909 24.5514151,25.4109091 C25.9113208,18.6181818 27.1834906,11.7963636 28.6165094,5.01818182 C27.329717,5.01818182 26.0283019,5.01818182 24.7268868,5.01818182 C23.7033019,10.9381818 22.8551887,16.8872727 21.7146226,22.7636364 C20.4278302,17.7890909 19.5650943,12.6690909 18.4391509,7.63636364 C18.190566,6.76363636 18.2929245,5.49818182 17.3716981,5.06181818 C16.217684,4.98853553 15.0601462,4.98853553 13.9061321,5.06181818 C13.2627358,5.12 13.1165094,5.89090909 12.9849057,6.4 C11.9613208,11.4036364 10.8646226,16.4072727 9.85566038,21.3818182 C9.74559399,21.848283 9.59891783,22.3054423 9.41698113,22.7490909 C8.37052354,16.845838 7.39561001,10.9302571 6.49245283,5.00363636 C5.08867925,5.00363636 3.67028302,5.03272727 2.25188679,5.00363636 L2.28113208,5.01818182 Z M61.7514151,0 L92.7514151,0 L92.7514151,32 L61.7514151,32 L61.7514151,0 L61.7514151,0 Z M68.770283,5.03272727 L68.770283,26.9672727 L73.054717,26.9672727 L73.054717,18.3854545 C75.3943396,18.3854545 77.7339623,18.3854545 80.0443396,18.3854545 C80.8924528,18.3127273 81.9160377,18.9236364 81.8867925,19.8690909 C82.0037736,22.24 82.1792453,24.6109091 82.3254717,26.9672727 C83.7146226,26.9672727 85.0745283,26.9672727 86.4198113,26.9672727 C86.0542453,24.2909091 86.5221698,21.5127273 85.7764151,18.88 C85.3816038,17.5127273 83.8754717,17.2072727 82.7056604,16.8436364 C83.5830189,16.4072727 84.6943396,16.3490909 85.3377358,15.4909091 C86.2589623,14.3272727 86.3174528,12.7272727 86.3174528,11.3018182 C86.3174528,9.62909091 86.3466981,7.78181818 85.2938679,6.35636364 C84.4457547,5.19272727 82.8665094,5.04727273 81.5504717,5.04727273 C77.2806604,5.01818182 73.0254717,5.04727273 68.7556604,5.04727273 L68.770283,5.03272727 Z M123.590566,0 L155,0 L155,32 L123.590566,32 L123.590566,0 Z M130.609434,5.03272727 L130.609434,26.9672727 C134.206604,26.9672727 137.818396,26.9963636 141.430189,26.9672727 C143.65283,26.9236364 146.25566,26.5018182 147.571698,24.4945455 C149.150943,21.9636364 148.916981,18.8654545 149.180189,16.0145455 C148.916981,13.1636364 149.180189,10.0509091 147.571698,7.53454545 C146.343396,5.64363636 143.945283,5.14909091 141.868868,5.06181818 C138.096226,5.00363636 134.338208,5.06181818 130.609434,5.06181818 L130.609434,5.03272727 Z M38.8962264,4.8 C43.8679245,4.8 48.8834906,4.8 53.8698113,4.8 C53.8990566,6.10909091 53.8990566,7.41818182 53.8698113,8.72727273 C52.1150943,8.75636364 50.3603774,8.72727273 48.5764151,8.72727273 C48.5764151,13.5854545 48.5764151,18.4145455 48.5764151,23.2727273 C50.3311321,23.2727273 52.1150943,23.2436364 53.884434,23.2727273 C53.884434,24.5818182 53.884434,25.8909091 53.884434,27.2 C48.8834906,27.2 43.8825472,27.2 38.8962264,27.2 C38.8669811,25.8909091 38.8669811,24.5818182 38.8962264,23.2727273 C40.6509434,23.2436364 42.4056604,23.2727273 44.1896226,23.2727273 C44.1896226,18.4145455 44.1896226,13.5854545 44.1896226,8.72727273 C42.4349057,8.72727273 40.6509434,8.75636364 38.8816038,8.72727273 C38.8523585,7.41818182 38.8523585,6.10909091 38.8816038,4.8 L38.8962264,4.8 Z M98.3080189,4.8 C104.449528,4.8 110.561792,4.8 116.688679,4.8 C116.688679,7.24363636 116.688679,9.67272727 116.688679,12.1018182 L112.711321,12.1018182 C112.711321,10.9818182 112.711321,9.86181818 112.711321,8.75636364 C110.313208,8.75636364 107.929717,8.75636364 105.546226,8.75636364 C105.516981,10.4290909 105.516981,12.1018182 105.516981,13.7745455 L111.32217,13.7745455 L111.32217,17.5127273 L105.531604,17.5127273 C105.531604,19.4327273 105.502358,21.3527273 105.531604,23.2727273 C108.017453,23.2436364 110.459434,23.2727273 112.916038,23.2727273 C112.912149,21.9927302 112.912149,20.7127243 112.916038,19.4327273 C114.261321,19.4327273 115.621226,19.4327273 116.966509,19.4327273 C116.966509,22.0072727 116.966509,24.5963636 116.937264,27.1854545 C110.722642,27.1854545 104.508019,27.1854545 98.2933962,27.1854545 C98.2933962,25.8763636 98.2933962,24.5672727 98.2933962,23.2581818 C99.2731132,23.2581818 100.267453,23.2581818 101.24717,23.2581818 C101.266572,18.4097162 101.266572,13.5611929 101.24717,8.71272727 C100.267453,8.71272727 99.2731132,8.71272727 98.2933962,8.71272727 C98.2933962,7.40363636 98.2933962,6.09454545 98.2933962,4.78545455 L98.3080189,4.8 Z" id="Shape" fill="#1D3861"></path>
                <path d="M2.28113208,5.01818182 C3.6995283,5.01818182 5.11792453,5.01818182 6.52169811,5.01818182 C7.42485529,10.9448026 8.39976882,16.8603835 9.44622642,22.7636364 C9.62744103,22.324705 9.77410852,21.8724358 9.88490566,21.4109091 C10.9084906,16.4072727 11.990566,11.4036364 13.0141509,6.42909091 C13.1603774,5.89090909 13.3066038,5.12 13.95,5.06181818 C15.090566,4.98909091 16.2457547,4.98909091 17.3863208,5.06181818 C18.3075472,5.49818182 18.190566,6.74909091 18.4391509,7.62181818 C19.5650943,12.6690909 20.4278302,17.8036364 21.7146226,22.7781818 C22.8551887,16.8872727 23.6886792,10.9381818 24.7268868,5.03272727 C26.0429245,5.03272727 27.3150943,5.03272727 28.6165094,5.03272727 C27.1834906,11.7963636 25.9113208,18.6181818 24.5514151,25.3963636 C24.4051887,25.9490909 24.4051887,26.6036364 23.8495283,26.9236364 C22.3704778,27.1260392 20.8712144,27.1358186 19.3896226,26.9527273 C18.8778302,26.6181818 18.8339623,25.9636364 18.6877358,25.44 C17.6056604,20.4363636 16.640566,15.4036364 15.5,10.4581818 C15.3014532,10.8422064 15.1633661,11.2542811 15.090566,11.68 C14.1839623,16.32 13.1603774,20.9454545 12.2391509,25.5709091 C12.0929245,26.1236364 11.9466981,27.0254545 11.1863208,26.9963636 C9.82641509,27.0836364 8.43726415,27.1418182 7.09198113,26.9236364 C6.33160377,26.4145455 6.47783019,25.3818182 6.24386792,24.5963636 C4.92783019,18.08 3.67028302,11.5345455 2.29575472,5.03272727 L2.28113208,5.01818182 Z M68.7556604,5.01818182 C73.0254717,5.01818182 77.2806604,5.01818182 81.5504717,5.01818182 C82.8665094,5.01818182 84.4457547,5.19272727 85.2938679,6.37090909 C86.3466981,7.78181818 86.3174528,9.62909091 86.3174528,11.3163636 C86.3174528,12.7418182 86.2589623,14.3127273 85.3377358,15.4909091 C84.7089623,16.3636364 83.5830189,16.3927273 82.7056604,16.8581818 C83.8754717,17.1927273 85.3962264,17.4981818 85.7764151,18.8945455 C86.5075472,21.5127273 86.0688679,24.2763636 86.434434,26.9672727 C85.0891509,26.9672727 83.7292453,26.9672727 82.3693396,26.9672727 C82.2231132,24.5963636 82.0183962,22.2254545 81.9014151,19.84 C81.9306604,18.9090909 80.9070755,18.2981818 80.0589623,18.3854545 C77.7193396,18.3563636 75.379717,18.3854545 73.0693396,18.3854545 L73.0693396,26.9672727 L68.770283,26.9672727 L68.770283,5.00363636 L68.7556604,5.01818182 Z M73.054717,8.62545455 L73.054717,14.9963636 C75.6283019,14.9672727 78.2018868,15.0836364 80.7754717,14.9527273 C82.15,14.8654545 82.1646226,13.2072727 82.2377358,12.1454545 C82.1792453,10.9818182 82.3839623,9.46909091 81.3311321,8.69818182 C78.5820755,8.55272727 75.8183962,8.69818182 73.054717,8.64 L73.054717,8.62545455 Z M130.580189,5.04727273 C134.35283,5.04727273 138.110849,5.00363636 141.868868,5.04727273 C143.959906,5.14909091 146.358019,5.62909091 147.600943,7.52 C149.180189,10.0654545 148.916981,13.1636364 149.209434,16.0290909 C148.916981,18.8945455 149.165566,21.9927273 147.600943,24.5090909 C146.25566,26.5454545 143.65283,26.9527273 141.459434,26.9818182 C137.833019,27.0254545 134.221226,26.9818182 130.609434,26.9818182 L130.609434,5.04727273 L130.580189,5.04727273 Z M134.908491,8.65454545 L134.908491,23.3890909 C137.101887,23.3890909 139.295283,23.3890909 141.488679,23.3890909 C142.556132,23.3890909 143.828302,23.1272727 144.325472,22.08 C145.056604,20.4218182 144.881132,18.5890909 144.954245,16.8145455 C144.866509,14.6327273 145.173585,12.3345455 144.442453,10.2254545 C144.120755,9.14909091 142.936321,8.62545455 141.898113,8.65454545 C139.558491,8.62545455 137.218868,8.65454545 134.879245,8.65454545 L134.908491,8.65454545 Z" id="Shape" fill="#FFFFFF"></path>
                <path d="M73.054717,8.62545455 C75.8330189,8.66909091 78.5820755,8.53818182 81.3311321,8.68363636 C82.3985849,9.45454545 82.1792453,10.9818182 82.2084906,12.1309091 C82.1646226,13.1781818 82.15,14.8509091 80.7754717,14.9381818 C78.2018868,15.0836364 75.6283019,14.9381818 73.054717,14.9818182 L73.054717,8.62545455 L73.054717,8.62545455 Z M134.908491,8.62545455 C137.248113,8.62545455 139.558491,8.62545455 141.898113,8.62545455 C142.921698,8.62545455 144.120755,9.13454545 144.442453,10.2254545 C145.173585,12.32 144.881132,14.5890909 144.954245,16.8 C144.895755,18.5454545 145.071226,20.4072727 144.325472,22.0363636 C143.842925,23.1127273 142.570755,23.3890909 141.503302,23.3745455 C139.309906,23.3745455 137.116509,23.3745455 134.893868,23.3745455 L134.893868,8.61090909 L134.908491,8.62545455 Z" id="Shape" fill="#1D3861"></path>
            </g>
        </g>
    </g>
</svg>